<svg width="212" height="51" viewBox="0 0 212 51" fill="none" xmlns="http://www.w3.org/2000/svg">
<g filter="url(#filter0_d_55_15)">
<path d="M100.93 45.752C99.3621 45.752 98.0021 45.304 96.8501 44.408C95.7301 43.544 94.8501 42.424 94.2101 41.048C93.5701 39.672 93.2501 38.28 93.2501 36.872C93.2501 34.728 93.7141 32.696 94.6421 30.776C95.6021 28.856 96.8021 27.064 98.2421 25.4C99.7141 23.704 101.186 22.184 102.658 20.84V20.312C102.658 19.416 102.77 18.344 102.994 17.096C103.25 15.848 103.618 14.552 104.098 13.208C104.578 11.864 105.17 10.616 105.874 9.464C106.578 8.28 107.394 7.32 108.322 6.584C109.25 5.848 110.29 5.48 111.442 5.48C112.498 5.48 113.346 5.816 113.986 6.488C114.626 7.128 114.946 7.976 114.946 9.032C114.946 10.152 114.546 11.288 113.746 12.44C112.978 13.592 112.002 14.728 110.818 15.848C109.634 16.968 108.45 18.024 107.266 19.016C106.082 19.976 105.106 20.84 104.338 21.608C104.498 22.504 104.642 23.416 104.77 24.344C104.898 25.24 105.074 26.152 105.298 27.08C105.81 26.248 106.498 25.4 107.362 24.536C108.258 23.64 109.234 22.904 110.29 22.328C111.346 21.72 112.386 21.416 113.41 21.416C114.498 21.416 115.41 21.72 116.146 22.328C116.882 22.904 117.426 23.656 117.778 24.584C118.162 25.48 118.354 26.424 118.354 27.416C118.354 28.376 118.162 29.448 117.778 30.632C117.426 31.784 116.946 32.952 116.338 34.136C115.762 35.288 115.138 36.392 114.466 37.448C113.794 38.472 113.154 39.336 112.546 40.04C112.706 40.2 112.978 40.456 113.362 40.808C113.778 41.16 114.21 41.544 114.658 41.96C115.106 42.376 115.49 42.76 115.81 43.112C116.13 43.464 116.29 43.72 116.29 43.88C116.29 43.944 116.258 44.024 116.194 44.12C116.162 44.216 116.082 44.264 115.954 44.264C115.858 44.264 115.618 44.104 115.234 43.784C114.882 43.496 114.466 43.128 113.986 42.68C113.506 42.264 113.058 41.864 112.642 41.48C112.258 41.128 112.002 40.904 111.874 40.808C110.402 42.376 108.754 43.592 106.93 44.456C105.106 45.32 103.106 45.752 100.93 45.752ZM104.386 19.304C104.994 18.76 105.81 18.088 106.834 17.288C107.858 16.488 108.882 15.624 109.906 14.696C110.962 13.768 111.842 12.824 112.546 11.864C113.282 10.904 113.65 10.024 113.65 9.224C113.65 8.648 113.426 8.152 112.978 7.736C112.562 7.32 112.082 7.112 111.538 7.112C110.802 7.112 110.082 7.432 109.378 8.072C108.706 8.712 108.066 9.544 107.458 10.568C106.882 11.56 106.37 12.632 105.922 13.784C105.506 14.904 105.154 15.96 104.866 16.952C104.61 17.944 104.45 18.728 104.386 19.304ZM100.93 44.312C102.85 44.312 104.642 43.912 106.306 43.112C108.002 42.312 109.506 41.224 110.818 39.848C109.378 38.504 108.13 37.064 107.074 35.528C106.05 33.992 105.218 32.296 104.578 30.44C104.258 31.144 104.05 31.8 103.954 32.408C103.858 33.016 103.81 33.688 103.81 34.424C103.81 34.584 103.778 34.792 103.714 35.048C103.682 35.304 103.538 35.448 103.282 35.48C103.09 35.416 102.962 35.272 102.898 35.048C102.866 34.792 102.85 34.568 102.85 34.376C102.85 33.448 102.962 32.552 103.186 31.688C103.41 30.792 103.73 29.944 104.146 29.144C103.858 28.152 103.602 27.16 103.378 26.168C103.154 25.144 102.978 24.136 102.85 23.144C101.73 24.296 100.578 25.64 99.3941 27.176C98.2101 28.712 97.2021 30.328 96.3701 32.024C95.5701 33.72 95.1701 35.416 95.1701 37.112C95.1701 38.2 95.3941 39.304 95.8421 40.424C96.2901 41.544 96.9461 42.472 97.8101 43.208C98.6741 43.944 99.7141 44.312 100.93 44.312ZM111.538 39.032C112.274 38.168 113.026 37.112 113.794 35.864C114.562 34.584 115.202 33.272 115.714 31.928C116.226 30.552 116.482 29.304 116.482 28.184C116.482 27.416 116.338 26.648 116.05 25.88C115.794 25.08 115.378 24.424 114.802 23.912C114.258 23.4 113.538 23.144 112.642 23.144C111.81 23.144 110.93 23.448 110.002 24.056C109.106 24.632 108.258 25.336 107.458 26.168C106.69 26.968 106.082 27.704 105.634 28.376C106.178 30.424 106.93 32.344 107.89 34.136C108.85 35.896 110.066 37.528 111.538 39.032Z" fill="#E7DC79" fill-opacity="0.5" shape-rendering="crispEdges"/>
</g>
<g filter="url(#filter1_d_55_15)">
<path d="M43.08 44.024C42.088 44.024 41.304 43.736 40.728 43.16C40.152 42.584 39.72 41.864 39.432 41C39.144 40.104 38.952 39.192 38.856 38.264C38.792 37.304 38.76 36.456 38.76 35.72C38.76 32.68 39.048 29.688 39.624 26.744C40.2 23.8 40.792 20.856 41.4 17.912C41.464 17.592 41.512 17.288 41.544 17C41.608 16.68 41.64 16.36 41.64 16.04C41.64 15.656 41.56 15.272 41.4 14.888C41.272 14.504 40.952 14.312 40.44 14.312C39.608 14.312 38.664 14.68 37.608 15.416C36.584 16.12 35.512 17.064 34.392 18.248C33.272 19.432 32.168 20.744 31.08 22.184C29.992 23.592 28.968 25.016 28.008 26.456C27.048 27.896 26.2 29.224 25.464 30.44C24.76 31.624 24.232 32.584 23.88 33.32C23.208 34.696 22.648 36.104 22.2 37.544C21.784 38.952 21.368 40.408 20.952 41.912C20.856 42.232 20.728 42.584 20.568 42.968C20.408 43.352 20.104 43.544 19.656 43.544C19.24 43.544 18.968 43.352 18.84 42.968C18.744 42.616 18.696 42.28 18.696 41.96C18.696 41.16 18.824 40.152 19.08 38.936C19.336 37.688 19.672 36.344 20.088 34.904C20.536 33.432 20.984 31.96 21.432 30.488C21.912 29.016 22.36 27.64 22.776 26.36C23.224 25.08 23.576 23.992 23.832 23.096C24.216 21.784 24.648 20.328 25.128 18.728C25.608 17.128 26.024 15.528 26.376 13.928C26.76 12.296 26.952 10.824 26.952 9.512C26.952 8.68 26.792 7.88 26.472 7.112C26.184 6.344 25.528 5.96 24.504 5.96C23 5.96 21.416 6.344 19.752 7.112C18.088 7.88 16.472 8.92 14.904 10.232C13.336 11.544 11.912 13 10.632 14.6C9.352 16.168 8.328 17.784 7.56 19.448C6.792 21.112 6.408 22.696 6.408 24.2C6.408 26.376 6.952 28.136 8.04 29.48C9.128 30.792 10.808 31.448 13.08 31.448C14.008 31.448 14.872 31.224 15.672 30.776C16.472 30.296 17.304 29.992 18.168 29.864L18.552 30.2C18.488 30.424 18.232 30.664 17.784 30.92C17.336 31.144 16.808 31.368 16.2 31.592C15.624 31.784 15.064 31.96 14.52 32.12C14.008 32.248 13.64 32.312 13.416 32.312C10.6 32.312 8.472 31.64 7.032 30.296C5.624 28.92 4.92 26.808 4.92 23.96C4.92 22.2 5.32 20.424 6.12 18.632C6.92 16.84 7.992 15.144 9.336 13.544C10.712 11.912 12.248 10.456 13.944 9.176C15.64 7.864 17.4 6.84 19.224 6.104C21.08 5.368 22.872 5 24.6 5C25.656 5 26.472 5.256 27.048 5.768C27.624 6.248 28.024 6.888 28.248 7.688C28.472 8.488 28.584 9.336 28.584 10.232C28.584 11.768 28.376 13.448 27.96 15.272C27.544 17.096 27.016 18.968 26.376 20.888C25.736 22.776 25.08 24.632 24.408 26.456C23.768 28.248 23.208 29.896 22.728 31.4C23.048 30.632 23.608 29.64 24.408 28.424C25.208 27.208 26.168 25.88 27.288 24.44C28.44 23 29.656 21.56 30.936 20.12C32.248 18.68 33.544 17.368 34.824 16.184C36.136 14.968 37.368 14.008 38.52 13.304C39.672 12.568 40.664 12.2 41.496 12.2C42.136 12.2 42.712 12.408 43.224 12.824C43.736 13.208 43.992 13.752 43.992 14.456C43.992 15.128 43.896 15.784 43.704 16.424C43.512 17.064 43.336 17.704 43.176 18.344C42.44 21.288 41.8 24.312 41.256 27.416C40.744 30.488 40.488 33.56 40.488 36.632C40.488 37.048 40.504 37.592 40.536 38.264C40.568 38.904 40.648 39.56 40.776 40.232C40.936 40.904 41.176 41.464 41.496 41.912C41.848 42.36 42.328 42.584 42.936 42.584C43.672 42.584 44.344 42.36 44.952 41.912C45.56 41.496 46.104 41.064 46.584 40.616C47.096 40.136 47.512 39.864 47.832 39.8L48.072 40.04C48.04 40.36 47.816 40.744 47.4 41.192C47.016 41.672 46.552 42.12 46.008 42.536C45.464 42.952 44.92 43.304 44.376 43.592C43.832 43.88 43.4 44.024 43.08 44.024ZM49.6725 42.344C49.1285 42.344 48.7285 42.072 48.4725 41.528C48.2165 41.016 48.0565 40.424 47.9925 39.752C47.9285 39.08 47.8965 38.568 47.8965 38.216C47.8965 37 48.0085 35.72 48.2325 34.376C48.4565 33 48.7445 31.72 49.0965 30.536C49.2565 29.992 49.5445 29.208 49.9605 28.184C50.3765 27.128 50.8725 26.056 51.4485 24.968C52.0565 23.88 52.6965 22.968 53.3685 22.232C54.0725 21.464 54.7765 21.08 55.4805 21.08C56.0245 21.08 56.6165 21.32 57.2565 21.8C57.8965 22.28 58.2165 22.808 58.2165 23.384C58.2165 23.608 58.1365 23.8 57.9765 23.96C58.0085 23.928 58.0885 23.912 58.2165 23.912C58.8245 23.912 59.1285 24.232 59.1285 24.872C59.1285 25.608 59.0165 26.488 58.7925 27.512C58.6005 28.536 58.3925 29.624 58.1685 30.776C57.9445 31.896 57.8325 32.984 57.8325 34.04C57.8325 34.424 57.8645 34.888 57.9285 35.432C57.9925 35.944 58.1365 36.408 58.3605 36.824C58.6165 37.24 59.0165 37.448 59.5605 37.448C60.0725 37.448 60.6165 37.176 61.1925 36.632C61.7685 36.088 62.3285 35.416 62.8725 34.616C63.4165 33.816 63.9285 33.016 64.4085 32.216C64.8885 31.416 65.2885 30.744 65.6085 30.2C65.9605 29.656 66.2005 29.384 66.3285 29.384C66.5525 29.384 66.6645 29.528 66.6645 29.816C66.6645 30.2 66.4885 30.76 66.1365 31.496C65.8165 32.2 65.3845 32.984 64.8405 33.848C64.2965 34.68 63.6885 35.496 63.0165 36.296C62.3765 37.064 61.7205 37.704 61.0485 38.216C60.4085 38.696 59.8325 38.936 59.3205 38.936C58.4885 38.936 57.8485 38.6 57.4005 37.928C56.9845 37.224 56.6965 36.392 56.5365 35.432C56.4085 34.472 56.3445 33.576 56.3445 32.744C56.3445 32.456 56.3445 32.184 56.3445 31.928C56.3445 31.672 56.3605 31.448 56.3925 31.256C56.2005 31.704 55.9285 32.376 55.5765 33.272C55.2245 34.136 54.8085 35.096 54.3285 36.152C53.8805 37.176 53.3845 38.168 52.8405 39.128C52.3285 40.056 51.8005 40.824 51.2565 41.432C50.7125 42.04 50.1845 42.344 49.6725 42.344ZM50.0565 40.328C50.4725 40.328 50.9365 39.944 51.4485 39.176C51.9605 38.408 52.4885 37.432 53.0325 36.248C53.6085 35.032 54.1525 33.736 54.6645 32.36C55.1765 30.984 55.6405 29.688 56.0565 28.472C56.5045 27.224 56.8725 26.2 57.1605 25.4C57.4485 24.568 57.6405 24.12 57.7365 24.056L57.4485 24.104C57.2245 24.104 57.0485 23.992 56.9205 23.768C56.7925 23.512 56.6325 23.272 56.4405 23.048C56.2485 22.824 55.9285 22.712 55.4805 22.712C54.9045 22.712 54.3445 23.048 53.8005 23.72C53.2565 24.392 52.7285 25.208 52.2165 26.168C51.7365 27.096 51.3205 28.008 50.9685 28.904C50.6485 29.8 50.4245 30.472 50.2965 30.92C49.6565 33.128 49.3365 35.4 49.3365 37.736C49.3365 37.864 49.3365 38.152 49.3365 38.6C49.3685 39.016 49.4325 39.416 49.5285 39.8C49.6565 40.152 49.8325 40.328 50.0565 40.328ZM65.7484 41.192C65.5244 41.192 65.3484 41.112 65.2204 40.952C65.1244 40.76 65.0764 40.552 65.0764 40.328C65.0764 38.536 65.1724 36.744 65.3644 34.952C65.5884 33.128 65.7004 31.32 65.7004 29.528C65.7004 29.336 65.6844 28.968 65.6524 28.424C65.6524 27.848 65.6204 27.24 65.5564 26.6C65.5244 25.928 65.4604 25.336 65.3644 24.824C65.3004 24.28 65.2044 23.944 65.0764 23.816C64.9484 23.72 64.8204 23.608 64.6924 23.48C64.5964 23.352 64.5484 23.192 64.5484 23C64.5484 22.808 64.6284 22.664 64.7884 22.568C64.9804 22.44 65.1724 22.376 65.3644 22.376C65.9084 22.376 66.2924 22.632 66.5164 23.144C66.7724 23.624 66.9324 24.216 66.9964 24.92C67.0924 25.624 67.1404 26.296 67.1404 26.936C67.1404 29.944 67.0444 32.968 66.8524 36.008C66.9804 35.656 67.2364 35.032 67.6204 34.136C68.0044 33.24 68.4684 32.232 69.0124 31.112C69.5564 29.992 70.1164 28.92 70.6924 27.896C71.3004 26.84 71.8604 25.976 72.3724 25.304C72.8844 24.6 73.3004 24.248 73.6204 24.248C74.0684 24.248 74.3884 24.536 74.5804 25.112C74.8044 25.656 74.9164 26.104 74.9164 26.456C74.9164 27.928 74.8364 29.4 74.6764 30.872C74.5484 32.344 74.4844 33.832 74.4844 35.336C74.4844 35.528 74.5004 35.896 74.5324 36.44C74.5964 36.952 74.6924 37.448 74.8204 37.928C74.9804 38.376 75.2204 38.6 75.5404 38.6C75.7964 38.6 76.1324 38.312 76.5484 37.736C76.9644 37.16 77.3964 36.488 77.8444 35.72C78.2924 34.92 78.6924 34.168 79.0444 33.464C79.3964 32.76 79.6364 32.264 79.7644 31.976C79.7964 31.912 79.8284 31.848 79.8604 31.784C79.8924 31.688 79.9404 31.64 80.0044 31.64C80.1644 31.64 80.2604 31.768 80.2924 32.024C80.3244 32.248 80.3404 32.392 80.3404 32.456C80.3404 32.776 80.1644 33.336 79.8124 34.136C79.4604 34.936 79.0124 35.784 78.4684 36.68C77.9564 37.576 77.4124 38.344 76.8364 38.984C76.2924 39.624 75.7964 39.944 75.3484 39.944C74.7084 39.944 74.2284 39.688 73.9084 39.176C73.6204 38.664 73.4284 38.088 73.3324 37.448C73.2364 36.776 73.1884 36.216 73.1884 35.768C73.1884 34.712 73.2364 33.656 73.3324 32.6C73.4604 31.544 73.5244 30.488 73.5244 29.432C73.5244 29.336 73.5084 29.096 73.4764 28.712C73.4764 28.328 73.4604 27.96 73.4284 27.608C73.3964 27.256 73.3164 27.08 73.1884 27.08C72.8684 27.08 72.4524 27.48 71.9404 28.28C71.4604 29.08 70.9324 30.088 70.3564 31.304C69.8124 32.52 69.2684 33.784 68.7244 35.096C68.1804 36.376 67.7004 37.528 67.2844 38.552C66.9004 39.576 66.6284 40.264 66.4684 40.616C66.4044 40.744 66.3084 40.872 66.1804 41C66.0844 41.128 65.9404 41.192 65.7484 41.192ZM82.2188 22.136C81.9948 22.136 81.7868 22.088 81.5948 21.992C81.4028 21.864 81.3068 21.688 81.3068 21.464C81.3068 21.208 81.4188 20.824 81.6428 20.312C81.8668 19.768 82.1548 19.224 82.5068 18.68C82.8588 18.136 83.2268 17.672 83.6108 17.288C84.0268 16.904 84.3948 16.712 84.7148 16.712C84.9708 16.712 85.0988 16.872 85.0988 17.192C85.0988 17.576 84.8908 17.88 84.4748 18.104C84.2188 18.264 83.9948 18.568 83.8028 19.016C83.6428 19.464 83.4988 19.928 83.3708 20.408C83.2748 20.888 83.1788 21.272 83.0828 21.56C82.9868 21.944 82.6988 22.136 82.2188 22.136ZM81.2588 40.52C80.5228 40.52 79.9788 40.216 79.6268 39.608C79.2748 38.968 79.0508 38.248 78.9548 37.448C78.8588 36.616 78.8108 35.944 78.8108 35.432C78.8108 35.112 78.8428 34.52 78.9068 33.656C79.0028 32.792 79.1148 31.832 79.2428 30.776C79.4028 29.688 79.5788 28.632 79.7708 27.608C79.9948 26.584 80.2508 25.736 80.5388 25.064C80.8268 24.392 81.1308 24.056 81.4508 24.056C81.7068 24.056 81.9308 24.136 82.1228 24.296C82.3148 24.456 82.4108 24.664 82.4108 24.92C82.4108 25.304 82.2988 25.912 82.0748 26.744C81.8508 27.576 81.5788 28.52 81.2588 29.576C80.9708 30.632 80.6988 31.704 80.4428 32.792C80.2188 33.848 80.1068 34.808 80.1068 35.672C80.1068 35.896 80.1228 36.28 80.1548 36.824C80.2188 37.368 80.3308 37.88 80.4908 38.36C80.6508 38.808 80.9068 39.032 81.2588 39.032C81.7388 39.032 82.2668 38.68 82.8428 37.976C83.4188 37.272 83.9948 36.408 84.5708 35.384C85.1788 34.328 85.7388 33.288 86.2508 32.264C86.7628 31.208 87.1948 30.328 87.5468 29.624C87.8988 28.92 88.1388 28.568 88.2668 28.568C88.4268 28.568 88.5228 28.632 88.5547 28.76C88.6188 28.856 88.6508 28.968 88.6508 29.096C88.6508 29.512 88.4748 30.184 88.1228 31.112C87.7708 32.008 87.3068 33 86.7308 34.088C86.1548 35.144 85.5308 36.168 84.8588 37.16C84.1868 38.12 83.5308 38.92 82.8908 39.56C82.2508 40.2 81.7068 40.52 81.2588 40.52Z" fill="#F4EADC"/>
</g>
<g filter="url(#filter2_d_55_15)">
<path d="M125.624 23.192C124.376 23.192 123.224 22.856 122.168 22.184C121.112 21.512 120.264 20.632 119.624 19.544C118.984 18.424 118.664 17.256 118.664 16.04C118.664 14.44 119.048 13.016 119.816 11.768C120.616 10.52 121.64 9.464 122.888 8.6C124.168 7.736 125.56 7.08 127.064 6.632C128.568 6.184 130.024 5.96 131.432 5.96C133.096 5.96 134.696 6.184 136.232 6.632C137.768 7.08 139.256 7.64 140.696 8.312C142.136 8.984 143.512 9.672 144.824 10.376C146.136 11.048 147.384 11.608 148.568 12.056C149.752 12.504 150.856 12.728 151.88 12.728C153.224 12.728 154.168 12.344 154.712 11.576C155.256 10.808 155.528 9.848 155.528 8.696V8.552C155.528 8.392 155.544 8.232 155.576 8.072C155.64 7.88 155.768 7.784 155.96 7.784C156.28 7.784 156.456 7.992 156.488 8.408C156.552 8.824 156.584 9.144 156.584 9.368C156.584 10.328 156.328 11.128 155.816 11.768C155.304 12.376 154.648 12.84 153.848 13.16C153.048 13.448 152.216 13.592 151.352 13.592C150.072 13.592 148.824 13.384 147.608 12.968C146.424 12.552 145.224 12.04 144.008 11.432C142.824 10.824 141.608 10.232 140.36 9.656C139.112 9.048 137.784 8.536 136.376 8.12C134.968 7.704 133.448 7.496 131.816 7.496C130.632 7.496 129.384 7.688 128.072 8.072C126.76 8.456 125.528 9.016 124.376 9.752C123.224 10.488 122.296 11.4 121.592 12.488C120.888 13.544 120.536 14.76 120.536 16.136C120.536 17.096 120.792 18.04 121.304 18.968C121.816 19.896 122.504 20.664 123.368 21.272C124.232 21.88 125.16 22.184 126.152 22.184C126.76 22.184 127.272 22.072 127.688 21.848C128.136 21.624 128.488 21.416 128.744 21.224C129.032 21 129.256 20.888 129.416 20.888C129.608 20.888 129.704 20.984 129.704 21.176C129.704 21.56 129.416 21.912 128.84 22.232C128.296 22.52 127.704 22.76 127.064 22.952C126.424 23.112 125.944 23.192 125.624 23.192ZM135.656 41.672C134.6 41.672 133.768 41.4 133.16 40.856C132.584 40.312 132.184 39.624 131.96 38.792C131.736 37.928 131.624 37.064 131.624 36.2C131.624 34.12 131.784 32.04 132.104 29.96C132.424 27.88 132.872 25.832 133.448 23.816C133.192 23.976 132.728 24.264 132.056 24.68C131.416 25.096 130.76 25.48 130.088 25.832C129.448 26.184 129 26.36 128.744 26.36C128.616 26.36 128.536 26.264 128.504 26.072C128.504 25.88 128.504 25.768 128.504 25.736C128.504 25 128.84 24.392 129.512 23.912C130.216 23.432 131 23.032 131.864 22.712C132.76 22.36 133.496 22.072 134.072 21.848C134.2 21.496 134.408 20.936 134.696 20.168C134.984 19.4 135.336 18.552 135.752 17.624C136.2 16.664 136.648 15.752 137.096 14.888C137.576 13.992 138.04 13.256 138.488 12.68C138.968 12.104 139.4 11.816 139.784 11.816C140.04 11.816 140.312 11.88 140.6 12.008C140.888 12.136 141.032 12.328 141.032 12.584L140.888 12.968C140.696 13.288 140.456 13.624 140.168 13.976C139.88 14.328 139.608 14.68 139.352 15.032C138.744 15.992 138.168 16.984 137.624 18.008C137.08 19 136.584 20.008 136.136 21.032C138.632 20.264 141.224 19.88 143.912 19.88C144.104 19.88 144.472 19.912 145.016 19.976C145.56 20.04 146.072 20.136 146.552 20.264C147.032 20.392 147.272 20.584 147.272 20.84C147.272 21.064 147.16 21.208 146.936 21.272C146.744 21.304 146.568 21.32 146.408 21.32C145.8 21.32 145.192 21.256 144.584 21.128C143.976 21 143.352 20.936 142.712 20.936C140.184 20.936 137.768 21.496 135.464 22.616C134.664 24.664 134.04 26.792 133.592 29C133.144 31.176 132.92 33.384 132.92 35.624C132.92 36.264 132.952 36.936 133.016 37.64C133.08 38.312 133.272 38.92 133.592 39.464C133.912 40.008 134.424 40.408 135.128 40.664C135.288 40.696 135.464 40.76 135.656 40.856C135.88 40.952 135.992 41.128 135.992 41.384C135.992 41.576 135.88 41.672 135.656 41.672ZM147.643 40.856C147.419 40.856 147.243 40.776 147.115 40.616C146.987 40.456 146.923 40.264 146.923 40.04C146.923 38.824 146.971 37.608 147.067 36.392C147.195 35.144 147.259 33.912 147.259 32.696C147.259 31.896 147.227 30.888 147.163 29.672C147.131 28.424 147.019 27.208 146.827 26.024C146.667 24.808 146.379 23.88 145.963 23.24C145.931 23.176 145.899 23.128 145.867 23.096C145.835 23.032 145.819 22.968 145.819 22.904C145.819 22.712 145.915 22.584 146.107 22.52C146.299 22.424 146.459 22.376 146.587 22.376C147.035 22.376 147.387 22.632 147.643 23.144C147.899 23.656 148.091 24.312 148.219 25.112C148.347 25.912 148.427 26.744 148.459 27.608C148.523 28.44 148.555 29.208 148.555 29.912C148.555 30.584 148.555 31.048 148.555 31.304C148.555 31.624 148.555 31.928 148.555 32.216C148.587 32.504 148.603 32.808 148.603 33.128C148.731 32.68 148.955 31.992 149.275 31.064C149.595 30.136 149.979 29.112 150.427 27.992C150.875 26.84 151.355 25.752 151.867 24.728C152.411 23.672 152.939 22.808 153.451 22.136C153.995 21.464 154.507 21.128 154.987 21.128C155.467 21.128 155.819 21.432 156.043 22.04C156.267 22.648 156.411 23.304 156.475 24.008C156.571 24.712 156.619 25.24 156.619 25.592C156.619 25.816 156.603 26.2 156.571 26.744C156.539 27.256 156.459 27.736 156.331 28.184C156.235 28.632 156.043 28.856 155.755 28.856C155.499 28.856 155.371 28.568 155.371 27.992C155.371 27.736 155.387 27.496 155.419 27.272C155.451 27.048 155.467 26.872 155.467 26.744C155.467 26.584 155.451 26.216 155.419 25.64C155.387 25.032 155.307 24.456 155.179 23.912C155.083 23.368 154.939 23.096 154.747 23.096C154.555 23.096 154.315 23.288 154.027 23.672C153.771 24.024 153.499 24.456 153.211 24.968C152.955 25.448 152.715 25.928 152.491 26.408C152.299 26.856 152.171 27.176 152.107 27.368C151.627 28.552 151.115 29.896 150.571 31.4C150.059 32.904 149.611 34.424 149.227 35.96C148.875 37.464 148.699 38.872 148.699 40.184C148.475 40.632 148.123 40.856 147.643 40.856ZM158.875 39.896C158.363 39.896 157.947 39.688 157.627 39.272C157.339 38.856 157.115 38.344 156.955 37.736C156.795 37.096 156.683 36.488 156.619 35.912C156.587 35.304 156.571 34.824 156.571 34.472C156.571 34.152 156.571 33.832 156.571 33.512C156.603 33.192 156.635 32.872 156.667 32.552C156.795 31.56 156.971 30.584 157.195 29.624C157.419 28.632 157.595 27.64 157.723 26.648C157.787 26.136 157.835 25.64 157.867 25.16C157.899 24.68 157.931 24.184 157.963 23.672C157.995 23.512 158.043 23.368 158.107 23.24C158.171 23.08 158.299 23 158.491 23C158.843 23 159.051 23.16 159.115 23.48C159.211 23.768 159.259 24.04 159.259 24.296C159.259 25.448 159.147 26.584 158.923 27.704C158.699 28.824 158.475 29.944 158.251 31.064C158.027 32.184 157.915 33.32 157.915 34.472C157.915 34.6 157.915 34.888 157.915 35.336C157.947 35.752 157.995 36.216 158.059 36.728C158.123 37.208 158.219 37.624 158.347 37.976C158.507 38.328 158.699 38.504 158.923 38.504C159.211 38.504 159.579 38.168 160.027 37.496C160.507 36.824 160.987 36.024 161.467 35.096C161.979 34.136 162.427 33.256 162.811 32.456C163.227 31.624 163.499 31.064 163.627 30.776C164.075 29.784 164.363 28.872 164.491 28.04C164.651 27.208 164.763 26.44 164.827 25.736C164.891 25 165.051 24.28 165.307 23.576C165.467 23.192 165.707 23 166.027 23C166.507 23 166.747 23.288 166.747 23.864C166.747 24.856 166.635 26.056 166.411 27.464C166.187 28.84 166.075 30.2 166.075 31.544V32.6C166.075 32.824 166.075 33.176 166.075 33.656C166.075 34.104 166.107 34.584 166.171 35.096C166.267 35.608 166.395 36.04 166.555 36.392C166.747 36.744 167.019 36.92 167.371 36.92C167.787 36.92 168.203 36.68 168.619 36.2C169.035 35.72 169.419 35.16 169.771 34.52C170.155 33.88 170.475 33.32 170.731 32.84C170.987 32.36 171.179 32.12 171.307 32.12C171.499 32.12 171.595 32.248 171.595 32.504C171.595 32.792 171.435 33.256 171.115 33.896C170.827 34.504 170.443 35.144 169.963 35.816C169.515 36.488 169.035 37.064 168.523 37.544C168.043 38.024 167.627 38.264 167.275 38.264C166.539 38.264 165.979 37.96 165.595 37.352C165.243 36.744 164.987 35.992 164.827 35.096C164.699 34.2 164.635 33.336 164.635 32.504C164.635 31.64 164.635 30.968 164.635 30.488C164.507 30.872 164.299 31.448 164.011 32.216C163.723 32.952 163.387 33.768 163.003 34.664C162.619 35.528 162.203 36.36 161.755 37.16C161.307 37.96 160.827 38.616 160.315 39.128C159.835 39.64 159.355 39.896 158.875 39.896ZM183.974 40.856C183.366 40.856 182.854 40.568 182.438 39.992C182.054 39.384 181.75 38.632 181.526 37.736C181.334 36.84 181.19 35.912 181.094 34.952C181.03 33.96 180.998 33.08 180.998 32.312C180.998 31.96 180.998 31.656 180.998 31.4C180.998 31.112 181.014 30.872 181.046 30.68C180.758 31.288 180.358 32.136 179.846 33.224C179.366 34.312 178.806 35.4 178.166 36.488C177.526 37.576 176.838 38.504 176.102 39.272C175.366 40.04 174.614 40.424 173.846 40.424C172.854 40.424 172.182 40.04 171.83 39.272C171.51 38.472 171.35 37.672 171.35 36.872C171.35 35.784 171.51 34.536 171.83 33.128C172.182 31.72 172.614 30.536 173.126 29.576C173.318 29.192 173.606 28.68 173.99 28.04C174.374 27.4 174.806 26.76 175.286 26.12C175.798 25.448 176.31 24.888 176.822 24.44C177.366 23.992 177.878 23.768 178.358 23.768C179.062 23.768 179.542 24.024 179.798 24.536C180.086 25.016 180.23 25.56 180.23 26.168C180.23 26.584 179.99 26.792 179.51 26.792C179.286 26.792 179.158 26.664 179.126 26.408C179.126 26.12 179.094 25.848 179.03 25.592C178.966 25.336 178.742 25.208 178.358 25.208C177.782 25.208 177.222 25.528 176.678 26.168C176.134 26.808 175.622 27.64 175.142 28.664C174.694 29.656 174.294 30.696 173.942 31.784C173.59 32.872 173.318 33.88 173.126 34.808C172.934 35.736 172.838 36.44 172.838 36.92C172.838 37.272 172.886 37.736 172.982 38.312C173.11 38.856 173.43 39.128 173.942 39.128C174.23 39.128 174.566 38.952 174.95 38.6C175.366 38.248 175.766 37.816 176.15 37.304C176.566 36.76 176.934 36.248 177.254 35.768C177.574 35.288 177.798 34.936 177.926 34.712C178.822 32.952 179.526 31.336 180.038 29.864C180.55 28.36 180.966 26.904 181.286 25.496C181.606 24.088 181.91 22.616 182.198 21.08C182.486 19.544 182.838 17.864 183.254 16.04C183.318 15.752 183.446 15.272 183.638 14.6C183.862 13.928 184.134 13.32 184.454 12.776C184.806 12.2 185.19 11.912 185.606 11.912C185.926 11.912 186.118 12.072 186.182 12.392C186.278 12.712 186.326 12.984 186.326 13.208C186.326 13.72 186.214 14.472 185.99 15.464C185.798 16.424 185.558 17.464 185.27 18.584C184.982 19.704 184.678 20.76 184.358 21.752C184.07 22.712 183.83 23.448 183.638 23.96C183.51 24.28 183.366 24.632 183.206 25.016C183.046 25.4 182.934 25.768 182.87 26.12C182.646 27.112 182.502 28.216 182.438 29.432C182.406 30.648 182.39 31.784 182.39 32.84C182.39 33.096 182.39 33.592 182.39 34.328C182.422 35.032 182.486 35.8 182.582 36.632C182.71 37.432 182.87 38.12 183.062 38.696C183.286 39.272 183.59 39.56 183.974 39.56C184.422 39.56 184.854 39.256 185.27 38.648C185.718 38.008 186.134 37.288 186.518 36.488C186.934 35.656 187.302 34.936 187.622 34.328C187.942 33.688 188.198 33.368 188.39 33.368C188.71 33.368 188.87 33.56 188.87 33.944C188.87 34.232 188.678 34.76 188.294 35.528C187.942 36.264 187.478 37.048 186.902 37.88C186.358 38.68 185.814 39.384 185.27 39.992C184.758 40.568 184.326 40.856 183.974 40.856ZM200.427 40.856C199.819 40.856 199.307 40.568 198.891 39.992C198.507 39.384 198.203 38.632 197.979 37.736C197.787 36.84 197.643 35.912 197.547 34.952C197.483 33.96 197.451 33.08 197.451 32.312C197.451 31.96 197.451 31.656 197.451 31.4C197.451 31.112 197.467 30.872 197.499 30.68C197.211 31.288 196.811 32.136 196.299 33.224C195.819 34.312 195.259 35.4 194.619 36.488C193.979 37.576 193.291 38.504 192.555 39.272C191.819 40.04 191.067 40.424 190.299 40.424C189.307 40.424 188.635 40.04 188.283 39.272C187.963 38.472 187.803 37.672 187.803 36.872C187.803 35.784 187.963 34.536 188.283 33.128C188.635 31.72 189.067 30.536 189.579 29.576C189.771 29.192 190.059 28.68 190.443 28.04C190.827 27.4 191.259 26.76 191.739 26.12C192.251 25.448 192.763 24.888 193.275 24.44C193.819 23.992 194.331 23.768 194.811 23.768C195.515 23.768 195.995 24.024 196.251 24.536C196.539 25.016 196.683 25.56 196.683 26.168C196.683 26.584 196.443 26.792 195.963 26.792C195.739 26.792 195.611 26.664 195.579 26.408C195.579 26.12 195.547 25.848 195.483 25.592C195.419 25.336 195.195 25.208 194.811 25.208C194.235 25.208 193.675 25.528 193.131 26.168C192.587 26.808 192.075 27.64 191.595 28.664C191.147 29.656 190.747 30.696 190.395 31.784C190.043 32.872 189.771 33.88 189.579 34.808C189.387 35.736 189.291 36.44 189.291 36.92C189.291 37.272 189.339 37.736 189.435 38.312C189.563 38.856 189.883 39.128 190.395 39.128C190.683 39.128 191.019 38.952 191.403 38.6C191.819 38.248 192.219 37.816 192.603 37.304C193.019 36.76 193.387 36.248 193.707 35.768C194.027 35.288 194.251 34.936 194.379 34.712C195.275 32.952 195.979 31.336 196.491 29.864C197.003 28.36 197.419 26.904 197.739 25.496C198.059 24.088 198.363 22.616 198.651 21.08C198.939 19.544 199.291 17.864 199.707 16.04C199.771 15.752 199.899 15.272 200.091 14.6C200.315 13.928 200.587 13.32 200.907 12.776C201.259 12.2 201.643 11.912 202.059 11.912C202.379 11.912 202.571 12.072 202.635 12.392C202.731 12.712 202.779 12.984 202.779 13.208C202.779 13.72 202.667 14.472 202.443 15.464C202.251 16.424 202.011 17.464 201.723 18.584C201.435 19.704 201.131 20.76 200.811 21.752C200.523 22.712 200.283 23.448 200.091 23.96C199.963 24.28 199.819 24.632 199.659 25.016C199.499 25.4 199.387 25.768 199.323 26.12C199.099 27.112 198.955 28.216 198.891 29.432C198.859 30.648 198.843 31.784 198.843 32.84C198.843 33.096 198.843 33.592 198.843 34.328C198.875 35.032 198.939 35.8 199.035 36.632C199.163 37.432 199.323 38.12 199.515 38.696C199.739 39.272 200.043 39.56 200.427 39.56C200.875 39.56 201.307 39.256 201.723 38.648C202.171 38.008 202.587 37.288 202.971 36.488C203.387 35.656 203.755 34.936 204.075 34.328C204.395 33.688 204.651 33.368 204.843 33.368C205.163 33.368 205.323 33.56 205.323 33.944C205.323 34.232 205.131 34.76 204.747 35.528C204.395 36.264 203.931 37.048 203.355 37.88C202.811 38.68 202.267 39.384 201.723 39.992C201.211 40.568 200.779 40.856 200.427 40.856Z" fill="#F4EADC"/>
</g>
<defs>
<filter id="filter0_d_55_15" x="89.2501" y="5.48" width="33.104" height="48.272" filterUnits="userSpaceOnUse" color-interpolation-filters="sRGB">
<feFlood flood-opacity="0" result="BackgroundImageFix"/>
<feColorMatrix in="SourceAlpha" type="matrix" values="0 0 0 0 0 0 0 0 0 0 0 0 0 0 0 0 0 0 127 0" result="hardAlpha"/>
<feOffset dy="4"/>
<feGaussianBlur stdDeviation="2"/>
<feComposite in2="hardAlpha" operator="out"/>
<feColorMatrix type="matrix" values="0 0 0 0 0 0 0 0 0 0 0 0 0 0 0 0 0 0 0.25 0"/>
<feBlend mode="normal" in2="BackgroundImageFix" result="effect1_dropShadow_55_15"/>
<feBlend mode="normal" in="SourceGraphic" in2="effect1_dropShadow_55_15" result="shape"/>
</filter>
<filter id="filter1_d_55_15" x="0.919983" y="5" width="91.7308" height="47.024" filterUnits="userSpaceOnUse" color-interpolation-filters="sRGB">
<feFlood flood-opacity="0" result="BackgroundImageFix"/>
<feColorMatrix in="SourceAlpha" type="matrix" values="0 0 0 0 0 0 0 0 0 0 0 0 0 0 0 0 0 0 127 0" result="hardAlpha"/>
<feOffset dy="4"/>
<feGaussianBlur stdDeviation="2"/>
<feComposite in2="hardAlpha" operator="out"/>
<feColorMatrix type="matrix" values="0 0 0 0 0 0 0 0 0 0 0 0 0 0 0 0 0 0 0.25 0"/>
<feBlend mode="normal" in2="BackgroundImageFix" result="effect1_dropShadow_55_15"/>
<feBlend mode="normal" in="SourceGraphic" in2="effect1_dropShadow_55_15" result="shape"/>
</filter>
<filter id="filter2_d_55_15" x="114.664" y="5.96" width="94.6588" height="43.712" filterUnits="userSpaceOnUse" color-interpolation-filters="sRGB">
<feFlood flood-opacity="0" result="BackgroundImageFix"/>
<feColorMatrix in="SourceAlpha" type="matrix" values="0 0 0 0 0 0 0 0 0 0 0 0 0 0 0 0 0 0 127 0" result="hardAlpha"/>
<feOffset dy="4"/>
<feGaussianBlur stdDeviation="2"/>
<feComposite in2="hardAlpha" operator="out"/>
<feColorMatrix type="matrix" values="0 0 0 0 0 0 0 0 0 0 0 0 0 0 0 0 0 0 0.25 0"/>
<feBlend mode="normal" in2="BackgroundImageFix" result="effect1_dropShadow_55_15"/>
<feBlend mode="normal" in="SourceGraphic" in2="effect1_dropShadow_55_15" result="shape"/>
</filter>
</defs>
</svg>
