<svg width="409" height="103" viewBox="0 0 409 103" fill="none" xmlns="http://www.w3.org/2000/svg">
<g filter="url(#filter0_d_32_3)">
<path d="M194.86 91.504C191.724 91.504 189.004 90.608 186.7 88.816C184.46 87.088 182.7 84.848 181.42 82.096C180.14 79.344 179.5 76.56 179.5 73.744C179.5 69.456 180.428 65.392 182.284 61.552C184.204 57.712 186.604 54.128 189.484 50.8C192.428 47.408 195.372 44.368 198.316 41.68V40.624C198.316 38.832 198.54 36.688 198.988 34.192C199.5 31.696 200.236 29.104 201.196 26.416C202.156 23.728 203.34 21.232 204.748 18.928C206.156 16.56 207.788 14.64 209.644 13.168C211.5 11.696 213.58 10.96 215.884 10.96C217.996 10.96 219.692 11.632 220.972 12.976C222.252 14.256 222.892 15.952 222.892 18.064C222.892 20.304 222.092 22.576 220.492 24.88C218.956 27.184 217.004 29.456 214.636 31.696C212.268 33.936 209.9 36.048 207.532 38.032C205.164 39.952 203.212 41.68 201.676 43.216C201.996 45.008 202.284 46.832 202.54 48.688C202.796 50.48 203.148 52.304 203.596 54.16C204.62 52.496 205.996 50.8 207.724 49.072C209.516 47.28 211.468 45.808 213.58 44.656C215.692 43.44 217.772 42.832 219.82 42.832C221.996 42.832 223.82 43.44 225.292 44.656C226.764 45.808 227.852 47.312 228.556 49.168C229.324 50.96 229.708 52.848 229.708 54.832C229.708 56.752 229.324 58.896 228.556 61.264C227.852 63.568 226.892 65.904 225.676 68.272C224.524 70.576 223.276 72.784 221.932 74.896C220.588 76.944 219.308 78.672 218.092 80.08C218.412 80.4 218.956 80.912 219.724 81.616C220.556 82.32 221.42 83.088 222.316 83.92C223.212 84.752 223.98 85.52 224.62 86.224C225.26 86.928 225.58 87.44 225.58 87.76C225.58 87.888 225.516 88.048 225.388 88.24C225.324 88.432 225.164 88.528 224.908 88.528C224.716 88.528 224.236 88.208 223.468 87.568C222.764 86.992 221.932 86.256 220.972 85.36C220.012 84.528 219.116 83.728 218.284 82.96C217.516 82.256 217.004 81.808 216.748 81.616C213.804 84.752 210.508 87.184 206.86 88.912C203.212 90.64 199.212 91.504 194.86 91.504ZM201.772 38.608C202.988 37.52 204.62 36.176 206.668 34.576C208.716 32.976 210.764 31.248 212.812 29.392C214.924 27.536 216.684 25.648 218.092 23.728C219.564 21.808 220.3 20.048 220.3 18.448C220.3 17.296 219.852 16.304 218.956 15.472C218.124 14.64 217.164 14.224 216.076 14.224C214.604 14.224 213.164 14.864 211.756 16.144C210.412 17.424 209.132 19.088 207.916 21.136C206.764 23.12 205.74 25.264 204.844 27.568C204.012 29.808 203.308 31.92 202.732 33.904C202.22 35.888 201.9 37.456 201.772 38.608ZM194.86 88.624C198.7 88.624 202.284 87.824 205.612 86.224C209.004 84.624 212.012 82.448 214.636 79.696C211.756 77.008 209.26 74.128 207.148 71.056C205.1 67.984 203.436 64.592 202.156 60.88C201.516 62.288 201.1 63.6 200.908 64.816C200.716 66.032 200.62 67.376 200.62 68.848C200.62 69.168 200.556 69.584 200.428 70.096C200.364 70.608 200.076 70.896 199.564 70.96C199.18 70.832 198.924 70.544 198.796 70.096C198.732 69.584 198.7 69.136 198.7 68.752C198.7 66.896 198.924 65.104 199.372 63.376C199.82 61.584 200.46 59.888 201.292 58.288C200.716 56.304 200.204 54.32 199.756 52.336C199.308 50.288 198.956 48.272 198.7 46.288C196.46 48.592 194.156 51.28 191.788 54.352C189.42 57.424 187.404 60.656 185.74 64.048C184.14 67.44 183.34 70.832 183.34 74.224C183.34 76.4 183.788 78.608 184.684 80.848C185.58 83.088 186.892 84.944 188.62 86.416C190.348 87.888 192.428 88.624 194.86 88.624ZM216.076 78.064C217.548 76.336 219.052 74.224 220.588 71.728C222.124 69.168 223.404 66.544 224.428 63.856C225.452 61.104 225.964 58.608 225.964 56.368C225.964 54.832 225.676 53.296 225.1 51.76C224.588 50.16 223.756 48.848 222.604 47.824C221.516 46.8 220.076 46.288 218.284 46.288C216.62 46.288 214.86 46.896 213.004 48.112C211.212 49.264 209.516 50.672 207.916 52.336C206.38 53.936 205.164 55.408 204.268 56.752C205.356 60.848 206.86 64.688 208.78 68.272C210.7 71.792 213.132 75.056 216.076 78.064Z" fill="#E7DC79" fill-opacity="0.5" shape-rendering="crispEdges"/>
</g>
<g filter="url(#filter1_d_32_3)">
<path d="M80.16 88.048C78.176 88.048 76.608 87.472 75.456 86.32C74.304 85.168 73.44 83.728 72.864 82C72.288 80.208 71.904 78.384 71.712 76.528C71.584 74.608 71.52 72.912 71.52 71.44C71.52 65.36 72.096 59.376 73.248 53.488C74.4 47.6 75.584 41.712 76.8 35.824C76.928 35.184 77.024 34.576 77.088 34C77.216 33.36 77.28 32.72 77.28 32.08C77.28 31.312 77.12 30.544 76.8 29.776C76.544 29.008 75.904 28.624 74.88 28.624C73.216 28.624 71.328 29.36 69.216 30.832C67.168 32.24 65.024 34.128 62.784 36.496C60.544 38.864 58.336 41.488 56.16 44.368C53.984 47.184 51.936 50.032 50.016 52.912C48.096 55.792 46.4 58.448 44.928 60.88C43.52 63.248 42.464 65.168 41.76 66.64C40.416 69.392 39.296 72.208 38.4 75.088C37.568 77.904 36.736 80.816 35.904 83.824C35.712 84.464 35.456 85.168 35.136 85.936C34.816 86.704 34.208 87.088 33.312 87.088C32.48 87.088 31.936 86.704 31.68 85.936C31.488 85.232 31.392 84.56 31.392 83.92C31.392 82.32 31.648 80.304 32.16 77.872C32.672 75.376 33.344 72.688 34.176 69.808C35.072 66.864 35.968 63.92 36.864 60.976C37.824 58.032 38.72 55.28 39.552 52.72C40.448 50.16 41.152 47.984 41.664 46.192C42.432 43.568 43.296 40.656 44.256 37.456C45.216 34.256 46.048 31.056 46.752 27.856C47.52 24.592 47.904 21.648 47.904 19.024C47.904 17.36 47.584 15.76 46.944 14.224C46.368 12.688 45.056 11.92 43.008 11.92C40 11.92 36.832 12.688 33.504 14.224C30.176 15.76 26.944 17.84 23.808 20.464C20.672 23.088 17.824 26 15.264 29.2C12.704 32.336 10.656 35.568 9.12 38.896C7.584 42.224 6.816 45.392 6.816 48.4C6.816 52.752 7.904 56.272 10.08 58.96C12.256 61.584 15.616 62.896 20.16 62.896C22.016 62.896 23.744 62.448 25.344 61.552C26.944 60.592 28.608 59.984 30.336 59.728L31.104 60.4C30.976 60.848 30.464 61.328 29.568 61.84C28.672 62.288 27.616 62.736 26.4 63.184C25.248 63.568 24.128 63.92 23.04 64.24C22.016 64.496 21.28 64.624 20.832 64.624C15.2 64.624 10.944 63.28 8.064 60.592C5.248 57.84 3.84 53.616 3.84 47.92C3.84 44.4 4.64 40.848 6.24 37.264C7.84 33.68 9.984 30.288 12.672 27.088C15.424 23.824 18.496 20.912 21.888 18.352C25.28 15.728 28.8 13.68 32.448 12.208C36.16 10.736 39.744 9.99999 43.2 9.99999C45.312 9.99999 46.944 10.512 48.096 11.536C49.248 12.496 50.048 13.776 50.496 15.376C50.944 16.976 51.168 18.672 51.168 20.464C51.168 23.536 50.752 26.896 49.92 30.544C49.088 34.192 48.032 37.936 46.752 41.776C45.472 45.552 44.16 49.264 42.816 52.912C41.536 56.496 40.416 59.792 39.456 62.8C40.096 61.264 41.216 59.28 42.816 56.848C44.416 54.416 46.336 51.76 48.576 48.88C50.88 46 53.312 43.12 55.872 40.24C58.496 37.36 61.088 34.736 63.648 32.368C66.272 29.936 68.736 28.016 71.04 26.608C73.344 25.136 75.328 24.4 76.992 24.4C78.272 24.4 79.424 24.816 80.448 25.648C81.472 26.416 81.984 27.504 81.984 28.912C81.984 30.256 81.792 31.568 81.408 32.848C81.024 34.128 80.672 35.408 80.352 36.688C78.88 42.576 77.6 48.624 76.512 54.832C75.488 60.976 74.976 67.12 74.976 73.264C74.976 74.096 75.008 75.184 75.072 76.528C75.136 77.808 75.296 79.12 75.552 80.464C75.872 81.808 76.352 82.928 76.992 83.824C77.696 84.72 78.656 85.168 79.872 85.168C81.344 85.168 82.688 84.72 83.904 83.824C85.12 82.992 86.208 82.128 87.168 81.232C88.192 80.272 89.024 79.728 89.664 79.6L90.144 80.08C90.08 80.72 89.632 81.488 88.8 82.384C88.032 83.344 87.104 84.24 86.016 85.072C84.928 85.904 83.84 86.608 82.752 87.184C81.664 87.76 80.8 88.048 80.16 88.048ZM93.345 84.688C92.257 84.688 91.457 84.144 90.945 83.056C90.433 82.032 90.113 80.848 89.985 79.504C89.857 78.16 89.793 77.136 89.793 76.432C89.793 74 90.017 71.44 90.465 68.752C90.913 66 91.489 63.44 92.193 61.072C92.513 59.984 93.089 58.416 93.921 56.368C94.753 54.256 95.745 52.112 96.897 49.936C98.113 47.76 99.393 45.936 100.737 44.464C102.145 42.928 103.553 42.16 104.961 42.16C106.049 42.16 107.233 42.64 108.513 43.6C109.793 44.56 110.433 45.616 110.433 46.768C110.433 47.216 110.273 47.6 109.953 47.92C110.017 47.856 110.177 47.824 110.433 47.824C111.649 47.824 112.257 48.464 112.257 49.744C112.257 51.216 112.033 52.976 111.585 55.024C111.201 57.072 110.785 59.248 110.337 61.552C109.889 63.792 109.665 65.968 109.665 68.08C109.665 68.848 109.729 69.776 109.857 70.864C109.985 71.888 110.273 72.816 110.721 73.648C111.233 74.48 112.033 74.896 113.121 74.896C114.145 74.896 115.233 74.352 116.385 73.264C117.537 72.176 118.657 70.832 119.745 69.232C120.833 67.632 121.857 66.032 122.817 64.432C123.777 62.832 124.577 61.488 125.217 60.4C125.921 59.312 126.401 58.768 126.657 58.768C127.105 58.768 127.329 59.056 127.329 59.632C127.329 60.4 126.977 61.52 126.273 62.992C125.633 64.4 124.769 65.968 123.681 67.696C122.593 69.36 121.377 70.992 120.033 72.592C118.753 74.128 117.441 75.408 116.097 76.432C114.817 77.392 113.665 77.872 112.641 77.872C110.977 77.872 109.697 77.2 108.801 75.856C107.969 74.448 107.393 72.784 107.073 70.864C106.817 68.944 106.689 67.152 106.689 65.488C106.689 64.912 106.689 64.368 106.689 63.856C106.689 63.344 106.721 62.896 106.785 62.512C106.401 63.408 105.857 64.752 105.153 66.544C104.449 68.272 103.617 70.192 102.657 72.304C101.761 74.352 100.769 76.336 99.681 78.256C98.657 80.112 97.601 81.648 96.513 82.864C95.425 84.08 94.369 84.688 93.345 84.688ZM94.113 80.656C94.945 80.656 95.873 79.888 96.897 78.352C97.921 76.816 98.977 74.864 100.065 72.496C101.217 70.064 102.305 67.472 103.329 64.72C104.353 61.968 105.281 59.376 106.113 56.944C107.009 54.448 107.745 52.4 108.321 50.8C108.897 49.136 109.281 48.24 109.473 48.112L108.897 48.208C108.449 48.208 108.097 47.984 107.841 47.536C107.585 47.024 107.265 46.544 106.881 46.096C106.497 45.648 105.857 45.424 104.961 45.424C103.809 45.424 102.689 46.096 101.601 47.44C100.513 48.784 99.457 50.416 98.433 52.336C97.473 54.192 96.641 56.016 95.937 57.808C95.297 59.6 94.849 60.944 94.593 61.84C93.313 66.256 92.673 70.8 92.673 75.472C92.673 75.728 92.673 76.304 92.673 77.2C92.737 78.032 92.865 78.832 93.057 79.6C93.313 80.304 93.665 80.656 94.113 80.656ZM125.497 82.384C125.049 82.384 124.697 82.224 124.441 81.904C124.249 81.52 124.153 81.104 124.153 80.656C124.153 77.072 124.345 73.488 124.729 69.904C125.177 66.256 125.401 62.64 125.401 59.056C125.401 58.672 125.369 57.936 125.305 56.848C125.305 55.696 125.241 54.48 125.113 53.2C125.049 51.856 124.921 50.672 124.729 49.648C124.601 48.56 124.409 47.888 124.153 47.632C123.897 47.44 123.641 47.216 123.385 46.96C123.193 46.704 123.097 46.384 123.097 46C123.097 45.616 123.257 45.328 123.577 45.136C123.961 44.88 124.345 44.752 124.729 44.752C125.817 44.752 126.585 45.264 127.033 46.288C127.545 47.248 127.865 48.432 127.993 49.84C128.185 51.248 128.281 52.592 128.281 53.872C128.281 59.888 128.089 65.936 127.705 72.016C127.961 71.312 128.473 70.064 129.241 68.272C130.009 66.48 130.937 64.464 132.025 62.224C133.113 59.984 134.233 57.84 135.385 55.792C136.601 53.68 137.721 51.952 138.745 50.608C139.769 49.2 140.601 48.496 141.241 48.496C142.137 48.496 142.777 49.072 143.161 50.224C143.609 51.312 143.833 52.208 143.833 52.912C143.833 55.856 143.673 58.8 143.353 61.744C143.097 64.688 142.969 67.664 142.969 70.672C142.969 71.056 143.001 71.792 143.065 72.88C143.193 73.904 143.385 74.896 143.641 75.856C143.961 76.752 144.441 77.2 145.081 77.2C145.593 77.2 146.265 76.624 147.097 75.472C147.929 74.32 148.793 72.976 149.689 71.44C150.585 69.84 151.385 68.336 152.089 66.928C152.793 65.52 153.273 64.528 153.529 63.952C153.593 63.824 153.657 63.696 153.721 63.568C153.785 63.376 153.881 63.28 154.009 63.28C154.329 63.28 154.521 63.536 154.585 64.048C154.649 64.496 154.681 64.784 154.681 64.912C154.681 65.552 154.329 66.672 153.625 68.272C152.921 69.872 152.025 71.568 150.937 73.36C149.913 75.152 148.825 76.688 147.673 77.968C146.585 79.248 145.593 79.888 144.697 79.888C143.417 79.888 142.457 79.376 141.817 78.352C141.241 77.328 140.857 76.176 140.665 74.896C140.473 73.552 140.377 72.432 140.377 71.536C140.377 69.424 140.473 67.312 140.665 65.2C140.921 63.088 141.049 60.976 141.049 58.864C141.049 58.672 141.017 58.192 140.953 57.424C140.953 56.656 140.921 55.92 140.857 55.216C140.793 54.512 140.633 54.16 140.377 54.16C139.737 54.16 138.905 54.96 137.881 56.56C136.921 58.16 135.865 60.176 134.713 62.608C133.625 65.04 132.537 67.568 131.449 70.192C130.361 72.752 129.401 75.056 128.569 77.104C127.801 79.152 127.257 80.528 126.937 81.232C126.809 81.488 126.617 81.744 126.361 82C126.169 82.256 125.881 82.384 125.497 82.384ZM158.438 44.272C157.99 44.272 157.574 44.176 157.19 43.984C156.806 43.728 156.614 43.376 156.614 42.928C156.614 42.416 156.838 41.648 157.286 40.624C157.734 39.536 158.31 38.448 159.014 37.36C159.718 36.272 160.454 35.344 161.222 34.576C162.054 33.808 162.79 33.424 163.43 33.424C163.942 33.424 164.198 33.744 164.198 34.384C164.198 35.152 163.782 35.76 162.95 36.208C162.438 36.528 161.99 37.136 161.606 38.032C161.286 38.928 160.998 39.856 160.742 40.816C160.55 41.776 160.358 42.544 160.166 43.12C159.974 43.888 159.398 44.272 158.438 44.272ZM156.518 81.04C155.046 81.04 153.958 80.432 153.254 79.216C152.55 77.936 152.102 76.496 151.91 74.896C151.718 73.232 151.622 71.888 151.622 70.864C151.622 70.224 151.686 69.04 151.814 67.312C152.006 65.584 152.23 63.664 152.486 61.552C152.806 59.376 153.158 57.264 153.542 55.216C153.99 53.168 154.502 51.472 155.078 50.128C155.654 48.784 156.262 48.112 156.902 48.112C157.414 48.112 157.862 48.272 158.246 48.592C158.63 48.912 158.822 49.328 158.822 49.84C158.822 50.608 158.598 51.824 158.15 53.488C157.702 55.152 157.158 57.04 156.518 59.152C155.942 61.264 155.398 63.408 154.886 65.584C154.438 67.696 154.214 69.616 154.214 71.344C154.214 71.792 154.246 72.56 154.31 73.648C154.438 74.736 154.662 75.76 154.982 76.72C155.302 77.616 155.814 78.064 156.518 78.064C157.478 78.064 158.534 77.36 159.686 75.952C160.838 74.544 161.99 72.816 163.142 70.768C164.358 68.656 165.478 66.576 166.502 64.528C167.526 62.416 168.39 60.656 169.094 59.248C169.798 57.84 170.278 57.136 170.534 57.136C170.854 57.136 171.046 57.264 171.109 57.52C171.238 57.712 171.302 57.936 171.302 58.192C171.302 59.024 170.95 60.368 170.246 62.224C169.542 64.016 168.614 66 167.462 68.176C166.31 70.288 165.062 72.336 163.718 74.32C162.374 76.24 161.062 77.84 159.782 79.12C158.502 80.4 157.414 81.04 156.518 81.04Z" fill="#F4EADC"/>
</g>
<g filter="url(#filter2_d_32_3)">
<path d="M246.248 46.384C243.752 46.384 241.448 45.712 239.336 44.368C237.224 43.024 235.528 41.264 234.248 39.088C232.968 36.848 232.328 34.512 232.328 32.08C232.328 28.88 233.096 26.032 234.632 23.536C236.232 21.04 238.28 18.928 240.776 17.2C243.336 15.472 246.12 14.16 249.128 13.264C252.136 12.368 255.048 11.92 257.864 11.92C261.192 11.92 264.392 12.368 267.464 13.264C270.536 14.16 273.512 15.28 276.392 16.624C279.272 17.968 282.024 19.344 284.648 20.752C287.272 22.096 289.768 23.216 292.136 24.112C294.504 25.008 296.712 25.456 298.76 25.456C301.448 25.456 303.336 24.688 304.424 23.152C305.512 21.616 306.056 19.696 306.056 17.392V17.104C306.056 16.784 306.088 16.464 306.152 16.144C306.28 15.76 306.536 15.568 306.92 15.568C307.56 15.568 307.912 15.984 307.976 16.816C308.104 17.648 308.168 18.288 308.168 18.736C308.168 20.656 307.656 22.256 306.632 23.536C305.608 24.752 304.296 25.68 302.696 26.32C301.096 26.896 299.432 27.184 297.704 27.184C295.144 27.184 292.648 26.768 290.216 25.936C287.848 25.104 285.448 24.08 283.016 22.864C280.648 21.648 278.216 20.464 275.72 19.312C273.224 18.096 270.568 17.072 267.752 16.24C264.936 15.408 261.896 14.992 258.632 14.992C256.264 14.992 253.768 15.376 251.144 16.144C248.52 16.912 246.056 18.032 243.752 19.504C241.448 20.976 239.592 22.8 238.184 24.976C236.776 27.088 236.072 29.52 236.072 32.272C236.072 34.192 236.584 36.08 237.608 37.936C238.632 39.792 240.008 41.328 241.736 42.544C243.464 43.76 245.32 44.368 247.304 44.368C248.52 44.368 249.544 44.144 250.376 43.696C251.272 43.248 251.976 42.832 252.488 42.448C253.064 42 253.512 41.776 253.832 41.776C254.216 41.776 254.408 41.968 254.408 42.352C254.408 43.12 253.832 43.824 252.68 44.464C251.592 45.04 250.408 45.52 249.128 45.904C247.848 46.224 246.888 46.384 246.248 46.384ZM266.312 83.344C264.2 83.344 262.536 82.8 261.32 81.712C260.168 80.624 259.368 79.248 258.92 77.584C258.472 75.856 258.248 74.128 258.248 72.4C258.248 68.24 258.568 64.08 259.208 59.92C259.848 55.76 260.744 51.664 261.896 47.632C261.384 47.952 260.456 48.528 259.112 49.36C257.832 50.192 256.52 50.96 255.176 51.664C253.896 52.368 253 52.72 252.488 52.72C252.232 52.72 252.072 52.528 252.008 52.144C252.008 51.76 252.008 51.536 252.008 51.472C252.008 50 252.68 48.784 254.024 47.824C255.432 46.864 257 46.064 258.728 45.424C260.52 44.72 261.992 44.144 263.144 43.696C263.4 42.992 263.816 41.872 264.392 40.336C264.968 38.8 265.672 37.104 266.504 35.248C267.4 33.328 268.296 31.504 269.192 29.776C270.152 27.984 271.08 26.512 271.976 25.36C272.936 24.208 273.8 23.632 274.568 23.632C275.08 23.632 275.624 23.76 276.2 24.016C276.776 24.272 277.064 24.656 277.064 25.168L276.776 25.936C276.392 26.576 275.912 27.248 275.336 27.952C274.76 28.656 274.216 29.36 273.704 30.064C272.488 31.984 271.336 33.968 270.248 36.016C269.16 38 268.168 40.016 267.272 42.064C272.264 40.528 277.448 39.76 282.824 39.76C283.208 39.76 283.944 39.824 285.032 39.952C286.12 40.08 287.144 40.272 288.104 40.528C289.064 40.784 289.544 41.168 289.544 41.68C289.544 42.128 289.32 42.416 288.872 42.544C288.488 42.608 288.136 42.64 287.816 42.64C286.6 42.64 285.384 42.512 284.168 42.256C282.952 42 281.704 41.872 280.424 41.872C275.368 41.872 270.536 42.992 265.928 45.232C264.328 49.328 263.08 53.584 262.184 58C261.288 62.352 260.84 66.768 260.84 71.248C260.84 72.528 260.904 73.872 261.032 75.28C261.16 76.624 261.544 77.84 262.184 78.928C262.824 80.016 263.848 80.816 265.256 81.328C265.576 81.392 265.928 81.52 266.312 81.712C266.76 81.904 266.984 82.256 266.984 82.768C266.984 83.152 266.76 83.344 266.312 83.344ZM290.285 81.712C289.837 81.712 289.485 81.552 289.229 81.232C288.973 80.912 288.845 80.528 288.845 80.08C288.845 77.648 288.941 75.216 289.133 72.784C289.389 70.288 289.517 67.824 289.517 65.392C289.517 63.792 289.453 61.776 289.325 59.344C289.261 56.848 289.037 54.416 288.653 52.048C288.333 49.616 287.757 47.76 286.925 46.48C286.861 46.352 286.797 46.256 286.733 46.192C286.669 46.064 286.637 45.936 286.637 45.808C286.637 45.424 286.829 45.168 287.213 45.04C287.597 44.848 287.917 44.752 288.173 44.752C289.069 44.752 289.773 45.264 290.285 46.288C290.797 47.312 291.181 48.624 291.437 50.224C291.693 51.824 291.853 53.488 291.917 55.216C292.045 56.88 292.109 58.416 292.109 59.824C292.109 61.168 292.109 62.096 292.109 62.608C292.109 63.248 292.109 63.856 292.109 64.432C292.173 65.008 292.205 65.616 292.205 66.256C292.461 65.36 292.909 63.984 293.549 62.128C294.189 60.272 294.957 58.224 295.853 55.984C296.749 53.68 297.709 51.504 298.733 49.456C299.821 47.344 300.877 45.616 301.901 44.272C302.989 42.928 304.013 42.256 304.973 42.256C305.933 42.256 306.637 42.864 307.085 44.08C307.533 45.296 307.821 46.608 307.949 48.016C308.141 49.424 308.237 50.48 308.237 51.184C308.237 51.632 308.205 52.4 308.141 53.488C308.077 54.512 307.917 55.472 307.661 56.368C307.469 57.264 307.085 57.712 306.509 57.712C305.997 57.712 305.741 57.136 305.741 55.984C305.741 55.472 305.773 54.992 305.837 54.544C305.901 54.096 305.933 53.744 305.933 53.488C305.933 53.168 305.901 52.432 305.837 51.28C305.773 50.064 305.613 48.912 305.357 47.824C305.165 46.736 304.877 46.192 304.493 46.192C304.109 46.192 303.629 46.576 303.053 47.344C302.541 48.048 301.997 48.912 301.421 49.936C300.909 50.896 300.429 51.856 299.981 52.816C299.597 53.712 299.341 54.352 299.213 54.736C298.253 57.104 297.229 59.792 296.141 62.8C295.117 65.808 294.221 68.848 293.453 71.92C292.749 74.928 292.397 77.744 292.397 80.368C291.949 81.264 291.245 81.712 290.285 81.712ZM312.749 79.792C311.725 79.792 310.893 79.376 310.253 78.544C309.677 77.712 309.229 76.688 308.909 75.472C308.589 74.192 308.365 72.976 308.237 71.824C308.173 70.608 308.141 69.648 308.141 68.944C308.141 68.304 308.141 67.664 308.141 67.024C308.205 66.384 308.269 65.744 308.333 65.104C308.589 63.12 308.941 61.168 309.389 59.248C309.837 57.264 310.189 55.28 310.445 53.296C310.573 52.272 310.669 51.28 310.733 50.32C310.797 49.36 310.861 48.368 310.925 47.344C310.989 47.024 311.085 46.736 311.213 46.48C311.341 46.16 311.597 46 311.981 46C312.685 46 313.101 46.32 313.229 46.96C313.421 47.536 313.517 48.08 313.517 48.592C313.517 50.896 313.293 53.168 312.845 55.408C312.397 57.648 311.949 59.888 311.501 62.128C311.053 64.368 310.829 66.64 310.829 68.944C310.829 69.2 310.829 69.776 310.829 70.672C310.893 71.504 310.989 72.432 311.117 73.456C311.245 74.416 311.437 75.248 311.693 75.952C312.013 76.656 312.397 77.008 312.845 77.008C313.421 77.008 314.157 76.336 315.053 74.992C316.013 73.648 316.973 72.048 317.933 70.192C318.957 68.272 319.853 66.512 320.621 64.912C321.453 63.248 321.997 62.128 322.253 61.552C323.149 59.568 323.725 57.744 323.981 56.08C324.301 54.416 324.525 52.88 324.653 51.472C324.781 50 325.101 48.56 325.613 47.152C325.933 46.384 326.413 46 327.053 46C328.013 46 328.493 46.576 328.493 47.728C328.493 49.712 328.269 52.112 327.821 54.928C327.373 57.68 327.149 60.4 327.149 63.088V65.2C327.149 65.648 327.149 66.352 327.149 67.312C327.149 68.208 327.213 69.168 327.341 70.192C327.533 71.216 327.789 72.08 328.109 72.784C328.493 73.488 329.037 73.84 329.741 73.84C330.573 73.84 331.405 73.36 332.237 72.4C333.069 71.44 333.837 70.32 334.541 69.04C335.309 67.76 335.949 66.64 336.461 65.68C336.973 64.72 337.357 64.24 337.613 64.24C337.997 64.24 338.189 64.496 338.189 65.008C338.189 65.584 337.869 66.512 337.229 67.792C336.653 69.008 335.885 70.288 334.925 71.632C334.029 72.976 333.069 74.128 332.045 75.088C331.085 76.048 330.253 76.528 329.549 76.528C328.077 76.528 326.957 75.92 326.189 74.704C325.485 73.488 324.973 71.984 324.653 70.192C324.397 68.4 324.269 66.672 324.269 65.008C324.269 63.28 324.269 61.936 324.269 60.976C324.013 61.744 323.597 62.896 323.021 64.432C322.445 65.904 321.773 67.536 321.005 69.328C320.237 71.056 319.405 72.72 318.509 74.32C317.613 75.92 316.653 77.232 315.629 78.256C314.669 79.28 313.709 79.792 312.749 79.792ZM362.947 81.712C361.731 81.712 360.707 81.136 359.875 79.984C359.107 78.768 358.499 77.264 358.051 75.472C357.667 73.68 357.379 71.824 357.187 69.904C357.059 67.92 356.995 66.16 356.995 64.624C356.995 63.92 356.995 63.312 356.995 62.8C356.995 62.224 357.027 61.744 357.091 61.36C356.515 62.576 355.715 64.272 354.691 66.448C353.731 68.624 352.611 70.8 351.331 72.976C350.051 75.152 348.675 77.008 347.203 78.544C345.731 80.08 344.227 80.848 342.691 80.848C340.707 80.848 339.363 80.08 338.659 78.544C338.019 76.944 337.699 75.344 337.699 73.744C337.699 71.568 338.019 69.072 338.659 66.256C339.363 63.44 340.227 61.072 341.251 59.152C341.635 58.384 342.211 57.36 342.979 56.08C343.747 54.8 344.611 53.52 345.571 52.24C346.595 50.896 347.619 49.776 348.643 48.88C349.731 47.984 350.755 47.536 351.715 47.536C353.123 47.536 354.083 48.048 354.595 49.072C355.171 50.032 355.459 51.12 355.459 52.336C355.459 53.168 354.979 53.584 354.019 53.584C353.571 53.584 353.315 53.328 353.251 52.816C353.251 52.24 353.187 51.696 353.059 51.184C352.931 50.672 352.483 50.416 351.715 50.416C350.563 50.416 349.443 51.056 348.355 52.336C347.267 53.616 346.243 55.28 345.283 57.328C344.387 59.312 343.587 61.392 342.883 63.568C342.179 65.744 341.635 67.76 341.251 69.616C340.867 71.472 340.675 72.88 340.675 73.84C340.675 74.544 340.771 75.472 340.963 76.624C341.219 77.712 341.859 78.256 342.883 78.256C343.459 78.256 344.131 77.904 344.899 77.2C345.731 76.496 346.531 75.632 347.299 74.608C348.131 73.52 348.867 72.496 349.507 71.536C350.147 70.576 350.595 69.872 350.851 69.424C352.643 65.904 354.051 62.672 355.075 59.728C356.099 56.72 356.931 53.808 357.571 50.992C358.211 48.176 358.819 45.232 359.395 42.16C359.971 39.088 360.675 35.728 361.507 32.08C361.635 31.504 361.891 30.544 362.275 29.2C362.723 27.856 363.267 26.64 363.907 25.552C364.611 24.4 365.379 23.824 366.211 23.824C366.851 23.824 367.235 24.144 367.363 24.784C367.555 25.424 367.651 25.968 367.651 26.416C367.651 27.44 367.427 28.944 366.979 30.928C366.595 32.848 366.115 34.928 365.539 37.168C364.963 39.408 364.355 41.52 363.715 43.504C363.139 45.424 362.659 46.896 362.275 47.92C362.019 48.56 361.731 49.264 361.411 50.032C361.091 50.8 360.867 51.536 360.739 52.24C360.291 54.224 360.003 56.432 359.875 58.864C359.811 61.296 359.779 63.568 359.779 65.68C359.779 66.192 359.779 67.184 359.779 68.656C359.843 70.064 359.971 71.6 360.163 73.264C360.419 74.864 360.739 76.24 361.123 77.392C361.571 78.544 362.179 79.12 362.947 79.12C363.843 79.12 364.707 78.512 365.539 77.296C366.435 76.016 367.267 74.576 368.035 72.976C368.867 71.312 369.603 69.872 370.243 68.656C370.883 67.376 371.395 66.736 371.779 66.736C372.419 66.736 372.739 67.12 372.739 67.888C372.739 68.464 372.355 69.52 371.587 71.056C370.883 72.528 369.955 74.096 368.803 75.76C367.715 77.36 366.627 78.768 365.539 79.984C364.515 81.136 363.651 81.712 362.947 81.712ZM395.854 81.712C394.638 81.712 393.614 81.136 392.781 79.984C392.014 78.768 391.406 77.264 390.958 75.472C390.574 73.68 390.286 71.824 390.094 69.904C389.966 67.92 389.902 66.16 389.902 64.624C389.902 63.92 389.902 63.312 389.902 62.8C389.902 62.224 389.934 61.744 389.998 61.36C389.422 62.576 388.622 64.272 387.598 66.448C386.638 68.624 385.518 70.8 384.238 72.976C382.958 75.152 381.582 77.008 380.109 78.544C378.638 80.08 377.134 80.848 375.598 80.848C373.614 80.848 372.27 80.08 371.566 78.544C370.926 76.944 370.605 75.344 370.605 73.744C370.605 71.568 370.926 69.072 371.566 66.256C372.27 63.44 373.134 61.072 374.158 59.152C374.542 58.384 375.118 57.36 375.886 56.08C376.654 54.8 377.518 53.52 378.478 52.24C379.502 50.896 380.526 49.776 381.549 48.88C382.638 47.984 383.662 47.536 384.622 47.536C386.03 47.536 386.99 48.048 387.502 49.072C388.078 50.032 388.366 51.12 388.366 52.336C388.366 53.168 387.886 53.584 386.926 53.584C386.478 53.584 386.222 53.328 386.158 52.816C386.158 52.24 386.094 51.696 385.966 51.184C385.838 50.672 385.39 50.416 384.622 50.416C383.47 50.416 382.35 51.056 381.262 52.336C380.174 53.616 379.15 55.28 378.19 57.328C377.294 59.312 376.494 61.392 375.79 63.568C375.086 65.744 374.542 67.76 374.158 69.616C373.774 71.472 373.582 72.88 373.582 73.84C373.582 74.544 373.678 75.472 373.87 76.624C374.126 77.712 374.766 78.256 375.79 78.256C376.366 78.256 377.038 77.904 377.806 77.2C378.638 76.496 379.438 75.632 380.206 74.608C381.038 73.52 381.774 72.496 382.414 71.536C383.054 70.576 383.502 69.872 383.758 69.424C385.55 65.904 386.958 62.672 387.982 59.728C389.006 56.72 389.838 53.808 390.478 50.992C391.118 48.176 391.726 45.232 392.302 42.16C392.878 39.088 393.582 35.728 394.414 32.08C394.542 31.504 394.798 30.544 395.182 29.2C395.63 27.856 396.174 26.64 396.814 25.552C397.518 24.4 398.286 23.824 399.118 23.824C399.758 23.824 400.142 24.144 400.27 24.784C400.462 25.424 400.558 25.968 400.558 26.416C400.558 27.44 400.334 28.944 399.886 30.928C399.502 32.848 399.022 34.928 398.446 37.168C397.87 39.408 397.262 41.52 396.622 43.504C396.046 45.424 395.566 46.896 395.182 47.92C394.926 48.56 394.638 49.264 394.318 50.032C393.998 50.8 393.774 51.536 393.646 52.24C393.198 54.224 392.91 56.432 392.781 58.864C392.718 61.296 392.686 63.568 392.686 65.68C392.686 66.192 392.686 67.184 392.686 68.656C392.75 70.064 392.878 71.6 393.07 73.264C393.326 74.864 393.646 76.24 394.03 77.392C394.478 78.544 395.086 79.12 395.854 79.12C396.75 79.12 397.614 78.512 398.446 77.296C399.342 76.016 400.174 74.576 400.942 72.976C401.774 71.312 402.51 69.872 403.15 68.656C403.79 67.376 404.302 66.736 404.686 66.736C405.326 66.736 405.646 67.12 405.646 67.888C405.646 68.464 405.262 69.52 404.494 71.056C403.79 72.528 402.862 74.096 401.71 75.76C400.622 77.36 399.534 78.768 398.446 79.984C397.422 81.136 396.558 81.712 395.854 81.712Z" fill="#F4EADC"/>
</g>
<defs>
<filter id="filter0_d_32_3" x="175.5" y="10.96" width="58.208" height="88.544" filterUnits="userSpaceOnUse" color-interpolation-filters="sRGB">
<feFlood flood-opacity="0" result="BackgroundImageFix"/>
<feColorMatrix in="SourceAlpha" type="matrix" values="0 0 0 0 0 0 0 0 0 0 0 0 0 0 0 0 0 0 127 0" result="hardAlpha"/>
<feOffset dy="4"/>
<feGaussianBlur stdDeviation="2"/>
<feComposite in2="hardAlpha" operator="out"/>
<feColorMatrix type="matrix" values="0 0 0 0 0 0 0 0 0 0 0 0 0 0 0 0 0 0 0.25 0"/>
<feBlend mode="normal" in2="BackgroundImageFix" result="effect1_dropShadow_32_3"/>
<feBlend mode="normal" in="SourceGraphic" in2="effect1_dropShadow_32_3" result="shape"/>
</filter>
<filter id="filter1_d_32_3" x="-0.160004" y="10" width="175.462" height="86.048" filterUnits="userSpaceOnUse" color-interpolation-filters="sRGB">
<feFlood flood-opacity="0" result="BackgroundImageFix"/>
<feColorMatrix in="SourceAlpha" type="matrix" values="0 0 0 0 0 0 0 0 0 0 0 0 0 0 0 0 0 0 127 0" result="hardAlpha"/>
<feOffset dy="4"/>
<feGaussianBlur stdDeviation="2"/>
<feComposite in2="hardAlpha" operator="out"/>
<feColorMatrix type="matrix" values="0 0 0 0 0 0 0 0 0 0 0 0 0 0 0 0 0 0 0.25 0"/>
<feBlend mode="normal" in2="BackgroundImageFix" result="effect1_dropShadow_32_3"/>
<feBlend mode="normal" in="SourceGraphic" in2="effect1_dropShadow_32_3" result="shape"/>
</filter>
<filter id="filter2_d_32_3" x="228.328" y="11.92" width="181.318" height="79.424" filterUnits="userSpaceOnUse" color-interpolation-filters="sRGB">
<feFlood flood-opacity="0" result="BackgroundImageFix"/>
<feColorMatrix in="SourceAlpha" type="matrix" values="0 0 0 0 0 0 0 0 0 0 0 0 0 0 0 0 0 0 127 0" result="hardAlpha"/>
<feOffset dy="4"/>
<feGaussianBlur stdDeviation="2"/>
<feComposite in2="hardAlpha" operator="out"/>
<feColorMatrix type="matrix" values="0 0 0 0 0 0 0 0 0 0 0 0 0 0 0 0 0 0 0.25 0"/>
<feBlend mode="normal" in2="BackgroundImageFix" result="effect1_dropShadow_32_3"/>
<feBlend mode="normal" in="SourceGraphic" in2="effect1_dropShadow_32_3" result="shape"/>
</filter>
</defs>
</svg>
