<svg width="411" height="120" viewBox="0 0 411 120" fill="none" xmlns="http://www.w3.org/2000/svg">
<g filter="url(#filter0_d_1_11)">
<path d="M195.86 91.504C192.724 91.504 190.004 90.608 187.7 88.816C185.46 87.088 183.7 84.848 182.42 82.096C181.14 79.344 180.5 76.56 180.5 73.744C180.5 69.456 181.428 65.392 183.284 61.552C185.204 57.712 187.604 54.128 190.484 50.8C193.428 47.408 196.372 44.368 199.316 41.68V40.624C199.316 38.832 199.54 36.688 199.988 34.192C200.5 31.696 201.236 29.104 202.196 26.416C203.156 23.728 204.34 21.232 205.748 18.928C207.156 16.56 208.788 14.64 210.644 13.168C212.5 11.696 214.58 10.96 216.884 10.96C218.996 10.96 220.692 11.632 221.972 12.976C223.252 14.256 223.892 15.952 223.892 18.064C223.892 20.304 223.092 22.576 221.492 24.88C219.956 27.184 218.004 29.456 215.636 31.696C213.268 33.936 210.9 36.048 208.532 38.032C206.164 39.952 204.212 41.68 202.676 43.216C202.996 45.008 203.284 46.832 203.54 48.688C203.796 50.48 204.148 52.304 204.596 54.16C205.62 52.496 206.996 50.8 208.724 49.072C210.516 47.28 212.468 45.808 214.58 44.656C216.692 43.44 218.772 42.832 220.82 42.832C222.996 42.832 224.82 43.44 226.292 44.656C227.764 45.808 228.852 47.312 229.556 49.168C230.324 50.96 230.708 52.848 230.708 54.832C230.708 56.752 230.324 58.896 229.556 61.264C228.852 63.568 227.892 65.904 226.676 68.272C225.524 70.576 224.276 72.784 222.932 74.896C221.588 76.944 220.308 78.672 219.092 80.08C219.412 80.4 219.956 80.912 220.724 81.616C221.556 82.32 222.42 83.088 223.316 83.92C224.212 84.752 224.98 85.52 225.62 86.224C226.26 86.928 226.58 87.44 226.58 87.76C226.58 87.888 226.516 88.048 226.388 88.24C226.324 88.432 226.164 88.528 225.908 88.528C225.716 88.528 225.236 88.208 224.468 87.568C223.764 86.992 222.932 86.256 221.972 85.36C221.012 84.528 220.116 83.728 219.284 82.96C218.516 82.256 218.004 81.808 217.748 81.616C214.804 84.752 211.508 87.184 207.86 88.912C204.212 90.64 200.212 91.504 195.86 91.504ZM202.772 38.608C203.988 37.52 205.62 36.176 207.668 34.576C209.716 32.976 211.764 31.248 213.812 29.392C215.924 27.536 217.684 25.648 219.092 23.728C220.564 21.808 221.3 20.048 221.3 18.448C221.3 17.296 220.852 16.304 219.956 15.472C219.124 14.64 218.164 14.224 217.076 14.224C215.604 14.224 214.164 14.864 212.756 16.144C211.412 17.424 210.132 19.088 208.916 21.136C207.764 23.12 206.74 25.264 205.844 27.568C205.012 29.808 204.308 31.92 203.732 33.904C203.22 35.888 202.9 37.456 202.772 38.608ZM195.86 88.624C199.7 88.624 203.284 87.824 206.612 86.224C210.004 84.624 213.012 82.448 215.636 79.696C212.756 77.008 210.26 74.128 208.148 71.056C206.1 67.984 204.436 64.592 203.156 60.88C202.516 62.288 202.1 63.6 201.908 64.816C201.716 66.032 201.62 67.376 201.62 68.848C201.62 69.168 201.556 69.584 201.428 70.096C201.364 70.608 201.076 70.896 200.564 70.96C200.18 70.832 199.924 70.544 199.796 70.096C199.732 69.584 199.7 69.136 199.7 68.752C199.7 66.896 199.924 65.104 200.372 63.376C200.82 61.584 201.46 59.888 202.292 58.288C201.716 56.304 201.204 54.32 200.756 52.336C200.308 50.288 199.956 48.272 199.7 46.288C197.46 48.592 195.156 51.28 192.788 54.352C190.42 57.424 188.404 60.656 186.74 64.048C185.14 67.44 184.34 70.832 184.34 74.224C184.34 76.4 184.788 78.608 185.684 80.848C186.58 83.088 187.892 84.944 189.62 86.416C191.348 87.888 193.428 88.624 195.86 88.624ZM217.076 78.064C218.548 76.336 220.052 74.224 221.588 71.728C223.124 69.168 224.404 66.544 225.428 63.856C226.452 61.104 226.964 58.608 226.964 56.368C226.964 54.832 226.676 53.296 226.1 51.76C225.588 50.16 224.756 48.848 223.604 47.824C222.516 46.8 221.076 46.288 219.284 46.288C217.62 46.288 215.86 46.896 214.004 48.112C212.212 49.264 210.516 50.672 208.916 52.336C207.38 53.936 206.164 55.408 205.268 56.752C206.356 60.848 207.86 64.688 209.78 68.272C211.7 71.792 214.132 75.056 217.076 78.064Z" fill="#E7DC79" fill-opacity="0.5" shape-rendering="crispEdges"/>
</g>
<g filter="url(#filter1_d_1_11)">
<path d="M81.16 88.048C79.176 88.048 77.608 87.472 76.456 86.32C75.304 85.168 74.44 83.728 73.864 82C73.288 80.208 72.904 78.384 72.712 76.528C72.584 74.608 72.52 72.912 72.52 71.44C72.52 65.36 73.096 59.376 74.248 53.488C75.4 47.6 76.584 41.712 77.8 35.824C77.928 35.184 78.024 34.576 78.088 34C78.216 33.36 78.28 32.72 78.28 32.08C78.28 31.312 78.12 30.544 77.8 29.776C77.544 29.008 76.904 28.624 75.88 28.624C74.216 28.624 72.328 29.36 70.216 30.832C68.168 32.24 66.024 34.128 63.784 36.496C61.544 38.864 59.336 41.488 57.16 44.368C54.984 47.184 52.936 50.032 51.016 52.912C49.096 55.792 47.4 58.448 45.928 60.88C44.52 63.248 43.464 65.168 42.76 66.64C41.416 69.392 40.296 72.208 39.4 75.088C38.568 77.904 37.736 80.816 36.904 83.824C36.712 84.464 36.456 85.168 36.136 85.936C35.816 86.704 35.208 87.088 34.312 87.088C33.48 87.088 32.936 86.704 32.68 85.936C32.488 85.232 32.392 84.56 32.392 83.92C32.392 82.32 32.648 80.304 33.16 77.872C33.672 75.376 34.344 72.688 35.176 69.808C36.072 66.864 36.968 63.92 37.864 60.976C38.824 58.032 39.72 55.28 40.552 52.72C41.448 50.16 42.152 47.984 42.664 46.192C43.432 43.568 44.296 40.656 45.256 37.456C46.216 34.256 47.048 31.056 47.752 27.856C48.52 24.592 48.904 21.648 48.904 19.024C48.904 17.36 48.584 15.76 47.944 14.224C47.368 12.688 46.056 11.92 44.008 11.92C41 11.92 37.832 12.688 34.504 14.224C31.176 15.76 27.944 17.84 24.808 20.464C21.672 23.088 18.824 26 16.264 29.2C13.704 32.336 11.656 35.568 10.12 38.896C8.584 42.224 7.816 45.392 7.816 48.4C7.816 52.752 8.904 56.272 11.08 58.96C13.256 61.584 16.616 62.896 21.16 62.896C23.016 62.896 24.744 62.448 26.344 61.552C27.944 60.592 29.608 59.984 31.336 59.728L32.104 60.4C31.976 60.848 31.464 61.328 30.568 61.84C29.672 62.288 28.616 62.736 27.4 63.184C26.248 63.568 25.128 63.92 24.04 64.24C23.016 64.496 22.28 64.624 21.832 64.624C16.2 64.624 11.944 63.28 9.064 60.592C6.248 57.84 4.84 53.616 4.84 47.92C4.84 44.4 5.64 40.848 7.24 37.264C8.84 33.68 10.984 30.288 13.672 27.088C16.424 23.824 19.496 20.912 22.888 18.352C26.28 15.728 29.8 13.68 33.448 12.208C37.16 10.736 40.744 9.99999 44.2 9.99999C46.312 9.99999 47.944 10.512 49.096 11.536C50.248 12.496 51.048 13.776 51.496 15.376C51.944 16.976 52.168 18.672 52.168 20.464C52.168 23.536 51.752 26.896 50.92 30.544C50.088 34.192 49.032 37.936 47.752 41.776C46.472 45.552 45.16 49.264 43.816 52.912C42.536 56.496 41.416 59.792 40.456 62.8C41.096 61.264 42.216 59.28 43.816 56.848C45.416 54.416 47.336 51.76 49.576 48.88C51.88 46 54.312 43.12 56.872 40.24C59.496 37.36 62.088 34.736 64.648 32.368C67.272 29.936 69.736 28.016 72.04 26.608C74.344 25.136 76.328 24.4 77.992 24.4C79.272 24.4 80.424 24.816 81.448 25.648C82.472 26.416 82.984 27.504 82.984 28.912C82.984 30.256 82.792 31.568 82.408 32.848C82.024 34.128 81.672 35.408 81.352 36.688C79.88 42.576 78.6 48.624 77.512 54.832C76.488 60.976 75.976 67.12 75.976 73.264C75.976 74.096 76.008 75.184 76.072 76.528C76.136 77.808 76.296 79.12 76.552 80.464C76.872 81.808 77.352 82.928 77.992 83.824C78.696 84.72 79.656 85.168 80.872 85.168C82.344 85.168 83.688 84.72 84.904 83.824C86.12 82.992 87.208 82.128 88.168 81.232C89.192 80.272 90.024 79.728 90.664 79.6L91.144 80.08C91.08 80.72 90.632 81.488 89.8 82.384C89.032 83.344 88.104 84.24 87.016 85.072C85.928 85.904 84.84 86.608 83.752 87.184C82.664 87.76 81.8 88.048 81.16 88.048ZM94.345 84.688C93.257 84.688 92.457 84.144 91.945 83.056C91.433 82.032 91.113 80.848 90.985 79.504C90.857 78.16 90.793 77.136 90.793 76.432C90.793 74 91.017 71.44 91.465 68.752C91.913 66 92.489 63.44 93.193 61.072C93.513 59.984 94.089 58.416 94.921 56.368C95.753 54.256 96.745 52.112 97.897 49.936C99.113 47.76 100.393 45.936 101.737 44.464C103.145 42.928 104.553 42.16 105.961 42.16C107.049 42.16 108.233 42.64 109.513 43.6C110.793 44.56 111.433 45.616 111.433 46.768C111.433 47.216 111.273 47.6 110.953 47.92C111.017 47.856 111.177 47.824 111.433 47.824C112.649 47.824 113.257 48.464 113.257 49.744C113.257 51.216 113.033 52.976 112.585 55.024C112.201 57.072 111.785 59.248 111.337 61.552C110.889 63.792 110.665 65.968 110.665 68.08C110.665 68.848 110.729 69.776 110.857 70.864C110.985 71.888 111.273 72.816 111.721 73.648C112.233 74.48 113.033 74.896 114.121 74.896C115.145 74.896 116.233 74.352 117.385 73.264C118.537 72.176 119.657 70.832 120.745 69.232C121.833 67.632 122.857 66.032 123.817 64.432C124.777 62.832 125.577 61.488 126.217 60.4C126.921 59.312 127.401 58.768 127.657 58.768C128.105 58.768 128.329 59.056 128.329 59.632C128.329 60.4 127.977 61.52 127.273 62.992C126.633 64.4 125.769 65.968 124.681 67.696C123.593 69.36 122.377 70.992 121.033 72.592C119.753 74.128 118.441 75.408 117.097 76.432C115.817 77.392 114.665 77.872 113.641 77.872C111.977 77.872 110.697 77.2 109.801 75.856C108.969 74.448 108.393 72.784 108.073 70.864C107.817 68.944 107.689 67.152 107.689 65.488C107.689 64.912 107.689 64.368 107.689 63.856C107.689 63.344 107.721 62.896 107.785 62.512C107.401 63.408 106.857 64.752 106.153 66.544C105.449 68.272 104.617 70.192 103.657 72.304C102.761 74.352 101.769 76.336 100.681 78.256C99.657 80.112 98.601 81.648 97.513 82.864C96.425 84.08 95.369 84.688 94.345 84.688ZM95.113 80.656C95.945 80.656 96.873 79.888 97.897 78.352C98.921 76.816 99.977 74.864 101.065 72.496C102.217 70.064 103.305 67.472 104.329 64.72C105.353 61.968 106.281 59.376 107.113 56.944C108.009 54.448 108.745 52.4 109.321 50.8C109.897 49.136 110.281 48.24 110.473 48.112L109.897 48.208C109.449 48.208 109.097 47.984 108.841 47.536C108.585 47.024 108.265 46.544 107.881 46.096C107.497 45.648 106.857 45.424 105.961 45.424C104.809 45.424 103.689 46.096 102.601 47.44C101.513 48.784 100.457 50.416 99.433 52.336C98.473 54.192 97.641 56.016 96.937 57.808C96.297 59.6 95.849 60.944 95.593 61.84C94.313 66.256 93.673 70.8 93.673 75.472C93.673 75.728 93.673 76.304 93.673 77.2C93.737 78.032 93.865 78.832 94.057 79.6C94.313 80.304 94.665 80.656 95.113 80.656ZM126.497 82.384C126.049 82.384 125.697 82.224 125.441 81.904C125.249 81.52 125.153 81.104 125.153 80.656C125.153 77.072 125.345 73.488 125.729 69.904C126.177 66.256 126.401 62.64 126.401 59.056C126.401 58.672 126.369 57.936 126.305 56.848C126.305 55.696 126.241 54.48 126.113 53.2C126.049 51.856 125.921 50.672 125.729 49.648C125.601 48.56 125.409 47.888 125.153 47.632C124.897 47.44 124.641 47.216 124.385 46.96C124.193 46.704 124.097 46.384 124.097 46C124.097 45.616 124.257 45.328 124.577 45.136C124.961 44.88 125.345 44.752 125.729 44.752C126.817 44.752 127.585 45.264 128.033 46.288C128.545 47.248 128.865 48.432 128.993 49.84C129.185 51.248 129.281 52.592 129.281 53.872C129.281 59.888 129.089 65.936 128.705 72.016C128.961 71.312 129.473 70.064 130.241 68.272C131.009 66.48 131.937 64.464 133.025 62.224C134.113 59.984 135.233 57.84 136.385 55.792C137.601 53.68 138.721 51.952 139.745 50.608C140.769 49.2 141.601 48.496 142.241 48.496C143.137 48.496 143.777 49.072 144.161 50.224C144.609 51.312 144.833 52.208 144.833 52.912C144.833 55.856 144.673 58.8 144.353 61.744C144.097 64.688 143.969 67.664 143.969 70.672C143.969 71.056 144.001 71.792 144.065 72.88C144.193 73.904 144.385 74.896 144.641 75.856C144.961 76.752 145.441 77.2 146.081 77.2C146.593 77.2 147.265 76.624 148.097 75.472C148.929 74.32 149.793 72.976 150.689 71.44C151.585 69.84 152.385 68.336 153.089 66.928C153.793 65.52 154.273 64.528 154.529 63.952C154.593 63.824 154.657 63.696 154.721 63.568C154.785 63.376 154.881 63.28 155.009 63.28C155.329 63.28 155.521 63.536 155.585 64.048C155.649 64.496 155.681 64.784 155.681 64.912C155.681 65.552 155.329 66.672 154.625 68.272C153.921 69.872 153.025 71.568 151.937 73.36C150.913 75.152 149.825 76.688 148.673 77.968C147.585 79.248 146.593 79.888 145.697 79.888C144.417 79.888 143.457 79.376 142.817 78.352C142.241 77.328 141.857 76.176 141.665 74.896C141.473 73.552 141.377 72.432 141.377 71.536C141.377 69.424 141.473 67.312 141.665 65.2C141.921 63.088 142.049 60.976 142.049 58.864C142.049 58.672 142.017 58.192 141.953 57.424C141.953 56.656 141.921 55.92 141.857 55.216C141.793 54.512 141.633 54.16 141.377 54.16C140.737 54.16 139.905 54.96 138.881 56.56C137.921 58.16 136.865 60.176 135.713 62.608C134.625 65.04 133.537 67.568 132.449 70.192C131.361 72.752 130.401 75.056 129.569 77.104C128.801 79.152 128.257 80.528 127.937 81.232C127.809 81.488 127.617 81.744 127.361 82C127.169 82.256 126.881 82.384 126.497 82.384ZM159.438 44.272C158.99 44.272 158.574 44.176 158.19 43.984C157.806 43.728 157.614 43.376 157.614 42.928C157.614 42.416 157.838 41.648 158.286 40.624C158.734 39.536 159.31 38.448 160.014 37.36C160.718 36.272 161.454 35.344 162.222 34.576C163.054 33.808 163.79 33.424 164.43 33.424C164.942 33.424 165.198 33.744 165.198 34.384C165.198 35.152 164.782 35.76 163.95 36.208C163.438 36.528 162.99 37.136 162.606 38.032C162.286 38.928 161.998 39.856 161.742 40.816C161.55 41.776 161.358 42.544 161.166 43.12C160.974 43.888 160.398 44.272 159.438 44.272ZM157.518 81.04C156.046 81.04 154.958 80.432 154.254 79.216C153.55 77.936 153.102 76.496 152.91 74.896C152.718 73.232 152.622 71.888 152.622 70.864C152.622 70.224 152.686 69.04 152.814 67.312C153.006 65.584 153.23 63.664 153.486 61.552C153.806 59.376 154.158 57.264 154.542 55.216C154.99 53.168 155.502 51.472 156.078 50.128C156.654 48.784 157.262 48.112 157.902 48.112C158.414 48.112 158.862 48.272 159.246 48.592C159.63 48.912 159.822 49.328 159.822 49.84C159.822 50.608 159.598 51.824 159.15 53.488C158.702 55.152 158.158 57.04 157.518 59.152C156.942 61.264 156.398 63.408 155.886 65.584C155.438 67.696 155.214 69.616 155.214 71.344C155.214 71.792 155.246 72.56 155.31 73.648C155.438 74.736 155.662 75.76 155.982 76.72C156.302 77.616 156.814 78.064 157.518 78.064C158.478 78.064 159.534 77.36 160.686 75.952C161.838 74.544 162.99 72.816 164.142 70.768C165.358 68.656 166.478 66.576 167.502 64.528C168.526 62.416 169.39 60.656 170.094 59.248C170.798 57.84 171.278 57.136 171.534 57.136C171.854 57.136 172.046 57.264 172.109 57.52C172.238 57.712 172.302 57.936 172.302 58.192C172.302 59.024 171.95 60.368 171.246 62.224C170.542 64.016 169.614 66 168.462 68.176C167.31 70.288 166.062 72.336 164.718 74.32C163.374 76.24 162.062 77.84 160.782 79.12C159.502 80.4 158.414 81.04 157.518 81.04Z" fill="#F4EADC"/>
</g>
<g filter="url(#filter2_d_1_11)">
<path d="M247.248 46.384C244.752 46.384 242.448 45.712 240.336 44.368C238.224 43.024 236.528 41.264 235.248 39.088C233.968 36.848 233.328 34.512 233.328 32.08C233.328 28.88 234.096 26.032 235.632 23.536C237.232 21.04 239.28 18.928 241.776 17.2C244.336 15.472 247.12 14.16 250.128 13.264C253.136 12.368 256.048 11.92 258.864 11.92C262.192 11.92 265.392 12.368 268.464 13.264C271.536 14.16 274.512 15.28 277.392 16.624C280.272 17.968 283.024 19.344 285.648 20.752C288.272 22.096 290.768 23.216 293.136 24.112C295.504 25.008 297.712 25.456 299.76 25.456C302.448 25.456 304.336 24.688 305.424 23.152C306.512 21.616 307.056 19.696 307.056 17.392V17.104C307.056 16.784 307.088 16.464 307.152 16.144C307.28 15.76 307.536 15.568 307.92 15.568C308.56 15.568 308.912 15.984 308.976 16.816C309.104 17.648 309.168 18.288 309.168 18.736C309.168 20.656 308.656 22.256 307.632 23.536C306.608 24.752 305.296 25.68 303.696 26.32C302.096 26.896 300.432 27.184 298.704 27.184C296.144 27.184 293.648 26.768 291.216 25.936C288.848 25.104 286.448 24.08 284.016 22.864C281.648 21.648 279.216 20.464 276.72 19.312C274.224 18.096 271.568 17.072 268.752 16.24C265.936 15.408 262.896 14.992 259.632 14.992C257.264 14.992 254.768 15.376 252.144 16.144C249.52 16.912 247.056 18.032 244.752 19.504C242.448 20.976 240.592 22.8 239.184 24.976C237.776 27.088 237.072 29.52 237.072 32.272C237.072 34.192 237.584 36.08 238.608 37.936C239.632 39.792 241.008 41.328 242.736 42.544C244.464 43.76 246.32 44.368 248.304 44.368C249.52 44.368 250.544 44.144 251.376 43.696C252.272 43.248 252.976 42.832 253.488 42.448C254.064 42 254.512 41.776 254.832 41.776C255.216 41.776 255.408 41.968 255.408 42.352C255.408 43.12 254.832 43.824 253.68 44.464C252.592 45.04 251.408 45.52 250.128 45.904C248.848 46.224 247.888 46.384 247.248 46.384ZM267.312 83.344C265.2 83.344 263.536 82.8 262.32 81.712C261.168 80.624 260.368 79.248 259.92 77.584C259.472 75.856 259.248 74.128 259.248 72.4C259.248 68.24 259.568 64.08 260.208 59.92C260.848 55.76 261.744 51.664 262.896 47.632C262.384 47.952 261.456 48.528 260.112 49.36C258.832 50.192 257.52 50.96 256.176 51.664C254.896 52.368 254 52.72 253.488 52.72C253.232 52.72 253.072 52.528 253.008 52.144C253.008 51.76 253.008 51.536 253.008 51.472C253.008 50 253.68 48.784 255.024 47.824C256.432 46.864 258 46.064 259.728 45.424C261.52 44.72 262.992 44.144 264.144 43.696C264.4 42.992 264.816 41.872 265.392 40.336C265.968 38.8 266.672 37.104 267.504 35.248C268.4 33.328 269.296 31.504 270.192 29.776C271.152 27.984 272.08 26.512 272.976 25.36C273.936 24.208 274.8 23.632 275.568 23.632C276.08 23.632 276.624 23.76 277.2 24.016C277.776 24.272 278.064 24.656 278.064 25.168L277.776 25.936C277.392 26.576 276.912 27.248 276.336 27.952C275.76 28.656 275.216 29.36 274.704 30.064C273.488 31.984 272.336 33.968 271.248 36.016C270.16 38 269.168 40.016 268.272 42.064C273.264 40.528 278.448 39.76 283.824 39.76C284.208 39.76 284.944 39.824 286.032 39.952C287.12 40.08 288.144 40.272 289.104 40.528C290.064 40.784 290.544 41.168 290.544 41.68C290.544 42.128 290.32 42.416 289.872 42.544C289.488 42.608 289.136 42.64 288.816 42.64C287.6 42.64 286.384 42.512 285.168 42.256C283.952 42 282.704 41.872 281.424 41.872C276.368 41.872 271.536 42.992 266.928 45.232C265.328 49.328 264.08 53.584 263.184 58C262.288 62.352 261.84 66.768 261.84 71.248C261.84 72.528 261.904 73.872 262.032 75.28C262.16 76.624 262.544 77.84 263.184 78.928C263.824 80.016 264.848 80.816 266.256 81.328C266.576 81.392 266.928 81.52 267.312 81.712C267.76 81.904 267.984 82.256 267.984 82.768C267.984 83.152 267.76 83.344 267.312 83.344ZM291.285 81.712C290.837 81.712 290.485 81.552 290.229 81.232C289.973 80.912 289.845 80.528 289.845 80.08C289.845 77.648 289.941 75.216 290.133 72.784C290.389 70.288 290.517 67.824 290.517 65.392C290.517 63.792 290.453 61.776 290.325 59.344C290.261 56.848 290.037 54.416 289.653 52.048C289.333 49.616 288.757 47.76 287.925 46.48C287.861 46.352 287.797 46.256 287.733 46.192C287.669 46.064 287.637 45.936 287.637 45.808C287.637 45.424 287.829 45.168 288.213 45.04C288.597 44.848 288.917 44.752 289.173 44.752C290.069 44.752 290.773 45.264 291.285 46.288C291.797 47.312 292.181 48.624 292.437 50.224C292.693 51.824 292.853 53.488 292.917 55.216C293.045 56.88 293.109 58.416 293.109 59.824C293.109 61.168 293.109 62.096 293.109 62.608C293.109 63.248 293.109 63.856 293.109 64.432C293.173 65.008 293.205 65.616 293.205 66.256C293.461 65.36 293.909 63.984 294.549 62.128C295.189 60.272 295.957 58.224 296.853 55.984C297.749 53.68 298.709 51.504 299.733 49.456C300.821 47.344 301.877 45.616 302.901 44.272C303.989 42.928 305.013 42.256 305.973 42.256C306.933 42.256 307.637 42.864 308.085 44.08C308.533 45.296 308.821 46.608 308.949 48.016C309.141 49.424 309.237 50.48 309.237 51.184C309.237 51.632 309.205 52.4 309.141 53.488C309.077 54.512 308.917 55.472 308.661 56.368C308.469 57.264 308.085 57.712 307.509 57.712C306.997 57.712 306.741 57.136 306.741 55.984C306.741 55.472 306.773 54.992 306.837 54.544C306.901 54.096 306.933 53.744 306.933 53.488C306.933 53.168 306.901 52.432 306.837 51.28C306.773 50.064 306.613 48.912 306.357 47.824C306.165 46.736 305.877 46.192 305.493 46.192C305.109 46.192 304.629 46.576 304.053 47.344C303.541 48.048 302.997 48.912 302.421 49.936C301.909 50.896 301.429 51.856 300.981 52.816C300.597 53.712 300.341 54.352 300.213 54.736C299.253 57.104 298.229 59.792 297.141 62.8C296.117 65.808 295.221 68.848 294.453 71.92C293.749 74.928 293.397 77.744 293.397 80.368C292.949 81.264 292.245 81.712 291.285 81.712ZM313.749 79.792C312.725 79.792 311.893 79.376 311.253 78.544C310.677 77.712 310.229 76.688 309.909 75.472C309.589 74.192 309.365 72.976 309.237 71.824C309.173 70.608 309.141 69.648 309.141 68.944C309.141 68.304 309.141 67.664 309.141 67.024C309.205 66.384 309.269 65.744 309.333 65.104C309.589 63.12 309.941 61.168 310.389 59.248C310.837 57.264 311.189 55.28 311.445 53.296C311.573 52.272 311.669 51.28 311.733 50.32C311.797 49.36 311.861 48.368 311.925 47.344C311.989 47.024 312.085 46.736 312.213 46.48C312.341 46.16 312.597 46 312.981 46C313.685 46 314.101 46.32 314.229 46.96C314.421 47.536 314.517 48.08 314.517 48.592C314.517 50.896 314.293 53.168 313.845 55.408C313.397 57.648 312.949 59.888 312.501 62.128C312.053 64.368 311.829 66.64 311.829 68.944C311.829 69.2 311.829 69.776 311.829 70.672C311.893 71.504 311.989 72.432 312.117 73.456C312.245 74.416 312.437 75.248 312.693 75.952C313.013 76.656 313.397 77.008 313.845 77.008C314.421 77.008 315.157 76.336 316.053 74.992C317.013 73.648 317.973 72.048 318.933 70.192C319.957 68.272 320.853 66.512 321.621 64.912C322.453 63.248 322.997 62.128 323.253 61.552C324.149 59.568 324.725 57.744 324.981 56.08C325.301 54.416 325.525 52.88 325.653 51.472C325.781 50 326.101 48.56 326.613 47.152C326.933 46.384 327.413 46 328.053 46C329.013 46 329.493 46.576 329.493 47.728C329.493 49.712 329.269 52.112 328.821 54.928C328.373 57.68 328.149 60.4 328.149 63.088V65.2C328.149 65.648 328.149 66.352 328.149 67.312C328.149 68.208 328.213 69.168 328.341 70.192C328.533 71.216 328.789 72.08 329.109 72.784C329.493 73.488 330.037 73.84 330.741 73.84C331.573 73.84 332.405 73.36 333.237 72.4C334.069 71.44 334.837 70.32 335.541 69.04C336.309 67.76 336.949 66.64 337.461 65.68C337.973 64.72 338.357 64.24 338.613 64.24C338.997 64.24 339.189 64.496 339.189 65.008C339.189 65.584 338.869 66.512 338.229 67.792C337.653 69.008 336.885 70.288 335.925 71.632C335.029 72.976 334.069 74.128 333.045 75.088C332.085 76.048 331.253 76.528 330.549 76.528C329.077 76.528 327.957 75.92 327.189 74.704C326.485 73.488 325.973 71.984 325.653 70.192C325.397 68.4 325.269 66.672 325.269 65.008C325.269 63.28 325.269 61.936 325.269 60.976C325.013 61.744 324.597 62.896 324.021 64.432C323.445 65.904 322.773 67.536 322.005 69.328C321.237 71.056 320.405 72.72 319.509 74.32C318.613 75.92 317.653 77.232 316.629 78.256C315.669 79.28 314.709 79.792 313.749 79.792ZM363.947 81.712C362.731 81.712 361.707 81.136 360.875 79.984C360.107 78.768 359.499 77.264 359.051 75.472C358.667 73.68 358.379 71.824 358.187 69.904C358.059 67.92 357.995 66.16 357.995 64.624C357.995 63.92 357.995 63.312 357.995 62.8C357.995 62.224 358.027 61.744 358.091 61.36C357.515 62.576 356.715 64.272 355.691 66.448C354.731 68.624 353.611 70.8 352.331 72.976C351.051 75.152 349.675 77.008 348.203 78.544C346.731 80.08 345.227 80.848 343.691 80.848C341.707 80.848 340.363 80.08 339.659 78.544C339.019 76.944 338.699 75.344 338.699 73.744C338.699 71.568 339.019 69.072 339.659 66.256C340.363 63.44 341.227 61.072 342.251 59.152C342.635 58.384 343.211 57.36 343.979 56.08C344.747 54.8 345.611 53.52 346.571 52.24C347.595 50.896 348.619 49.776 349.643 48.88C350.731 47.984 351.755 47.536 352.715 47.536C354.123 47.536 355.083 48.048 355.595 49.072C356.171 50.032 356.459 51.12 356.459 52.336C356.459 53.168 355.979 53.584 355.019 53.584C354.571 53.584 354.315 53.328 354.251 52.816C354.251 52.24 354.187 51.696 354.059 51.184C353.931 50.672 353.483 50.416 352.715 50.416C351.563 50.416 350.443 51.056 349.355 52.336C348.267 53.616 347.243 55.28 346.283 57.328C345.387 59.312 344.587 61.392 343.883 63.568C343.179 65.744 342.635 67.76 342.251 69.616C341.867 71.472 341.675 72.88 341.675 73.84C341.675 74.544 341.771 75.472 341.963 76.624C342.219 77.712 342.859 78.256 343.883 78.256C344.459 78.256 345.131 77.904 345.899 77.2C346.731 76.496 347.531 75.632 348.299 74.608C349.131 73.52 349.867 72.496 350.507 71.536C351.147 70.576 351.595 69.872 351.851 69.424C353.643 65.904 355.051 62.672 356.075 59.728C357.099 56.72 357.931 53.808 358.571 50.992C359.211 48.176 359.819 45.232 360.395 42.16C360.971 39.088 361.675 35.728 362.507 32.08C362.635 31.504 362.891 30.544 363.275 29.2C363.723 27.856 364.267 26.64 364.907 25.552C365.611 24.4 366.379 23.824 367.211 23.824C367.851 23.824 368.235 24.144 368.363 24.784C368.555 25.424 368.651 25.968 368.651 26.416C368.651 27.44 368.427 28.944 367.979 30.928C367.595 32.848 367.115 34.928 366.539 37.168C365.963 39.408 365.355 41.52 364.715 43.504C364.139 45.424 363.659 46.896 363.275 47.92C363.019 48.56 362.731 49.264 362.411 50.032C362.091 50.8 361.867 51.536 361.739 52.24C361.291 54.224 361.003 56.432 360.875 58.864C360.811 61.296 360.779 63.568 360.779 65.68C360.779 66.192 360.779 67.184 360.779 68.656C360.843 70.064 360.971 71.6 361.163 73.264C361.419 74.864 361.739 76.24 362.123 77.392C362.571 78.544 363.179 79.12 363.947 79.12C364.843 79.12 365.707 78.512 366.539 77.296C367.435 76.016 368.267 74.576 369.035 72.976C369.867 71.312 370.603 69.872 371.243 68.656C371.883 67.376 372.395 66.736 372.779 66.736C373.419 66.736 373.739 67.12 373.739 67.888C373.739 68.464 373.355 69.52 372.587 71.056C371.883 72.528 370.955 74.096 369.803 75.76C368.715 77.36 367.627 78.768 366.539 79.984C365.515 81.136 364.651 81.712 363.947 81.712ZM396.854 81.712C395.638 81.712 394.614 81.136 393.781 79.984C393.014 78.768 392.406 77.264 391.958 75.472C391.574 73.68 391.286 71.824 391.094 69.904C390.966 67.92 390.902 66.16 390.902 64.624C390.902 63.92 390.902 63.312 390.902 62.8C390.902 62.224 390.934 61.744 390.998 61.36C390.422 62.576 389.622 64.272 388.598 66.448C387.638 68.624 386.518 70.8 385.238 72.976C383.958 75.152 382.582 77.008 381.109 78.544C379.638 80.08 378.134 80.848 376.598 80.848C374.614 80.848 373.27 80.08 372.566 78.544C371.926 76.944 371.605 75.344 371.605 73.744C371.605 71.568 371.926 69.072 372.566 66.256C373.27 63.44 374.134 61.072 375.158 59.152C375.542 58.384 376.118 57.36 376.886 56.08C377.654 54.8 378.518 53.52 379.478 52.24C380.502 50.896 381.526 49.776 382.549 48.88C383.638 47.984 384.662 47.536 385.622 47.536C387.03 47.536 387.99 48.048 388.502 49.072C389.078 50.032 389.366 51.12 389.366 52.336C389.366 53.168 388.886 53.584 387.926 53.584C387.478 53.584 387.222 53.328 387.158 52.816C387.158 52.24 387.094 51.696 386.966 51.184C386.838 50.672 386.39 50.416 385.622 50.416C384.47 50.416 383.35 51.056 382.262 52.336C381.174 53.616 380.15 55.28 379.19 57.328C378.294 59.312 377.494 61.392 376.79 63.568C376.086 65.744 375.542 67.76 375.158 69.616C374.774 71.472 374.582 72.88 374.582 73.84C374.582 74.544 374.678 75.472 374.87 76.624C375.126 77.712 375.766 78.256 376.79 78.256C377.366 78.256 378.038 77.904 378.806 77.2C379.638 76.496 380.438 75.632 381.206 74.608C382.038 73.52 382.774 72.496 383.414 71.536C384.054 70.576 384.502 69.872 384.758 69.424C386.55 65.904 387.958 62.672 388.982 59.728C390.006 56.72 390.838 53.808 391.478 50.992C392.118 48.176 392.726 45.232 393.302 42.16C393.878 39.088 394.582 35.728 395.414 32.08C395.542 31.504 395.798 30.544 396.182 29.2C396.63 27.856 397.174 26.64 397.814 25.552C398.518 24.4 399.286 23.824 400.118 23.824C400.758 23.824 401.142 24.144 401.27 24.784C401.462 25.424 401.558 25.968 401.558 26.416C401.558 27.44 401.334 28.944 400.886 30.928C400.502 32.848 400.022 34.928 399.446 37.168C398.87 39.408 398.262 41.52 397.622 43.504C397.046 45.424 396.566 46.896 396.182 47.92C395.926 48.56 395.638 49.264 395.318 50.032C394.998 50.8 394.774 51.536 394.646 52.24C394.198 54.224 393.91 56.432 393.781 58.864C393.718 61.296 393.686 63.568 393.686 65.68C393.686 66.192 393.686 67.184 393.686 68.656C393.75 70.064 393.878 71.6 394.07 73.264C394.326 74.864 394.646 76.24 395.03 77.392C395.478 78.544 396.086 79.12 396.854 79.12C397.75 79.12 398.614 78.512 399.446 77.296C400.342 76.016 401.174 74.576 401.942 72.976C402.774 71.312 403.51 69.872 404.15 68.656C404.79 67.376 405.302 66.736 405.686 66.736C406.326 66.736 406.646 67.12 406.646 67.888C406.646 68.464 406.262 69.52 405.494 71.056C404.79 72.528 403.862 74.096 402.71 75.76C401.622 77.36 400.534 78.768 399.446 79.984C398.422 81.136 397.558 81.712 396.854 81.712Z" fill="#F4EADC"/>
</g>
<defs>
<filter id="filter0_d_1_11" x="176.5" y="10.96" width="58.208" height="88.544" filterUnits="userSpaceOnUse" color-interpolation-filters="sRGB">
<feFlood flood-opacity="0" result="BackgroundImageFix"/>
<feColorMatrix in="SourceAlpha" type="matrix" values="0 0 0 0 0 0 0 0 0 0 0 0 0 0 0 0 0 0 127 0" result="hardAlpha"/>
<feOffset dy="4"/>
<feGaussianBlur stdDeviation="2"/>
<feComposite in2="hardAlpha" operator="out"/>
<feColorMatrix type="matrix" values="0 0 0 0 0 0 0 0 0 0 0 0 0 0 0 0 0 0 0.25 0"/>
<feBlend mode="normal" in2="BackgroundImageFix" result="effect1_dropShadow_1_11"/>
<feBlend mode="normal" in="SourceGraphic" in2="effect1_dropShadow_1_11" result="shape"/>
</filter>
<filter id="filter1_d_1_11" x="0.839996" y="10" width="175.462" height="86.048" filterUnits="userSpaceOnUse" color-interpolation-filters="sRGB">
<feFlood flood-opacity="0" result="BackgroundImageFix"/>
<feColorMatrix in="SourceAlpha" type="matrix" values="0 0 0 0 0 0 0 0 0 0 0 0 0 0 0 0 0 0 127 0" result="hardAlpha"/>
<feOffset dy="4"/>
<feGaussianBlur stdDeviation="2"/>
<feComposite in2="hardAlpha" operator="out"/>
<feColorMatrix type="matrix" values="0 0 0 0 0 0 0 0 0 0 0 0 0 0 0 0 0 0 0.25 0"/>
<feBlend mode="normal" in2="BackgroundImageFix" result="effect1_dropShadow_1_11"/>
<feBlend mode="normal" in="SourceGraphic" in2="effect1_dropShadow_1_11" result="shape"/>
</filter>
<filter id="filter2_d_1_11" x="229.328" y="11.92" width="181.318" height="79.424" filterUnits="userSpaceOnUse" color-interpolation-filters="sRGB">
<feFlood flood-opacity="0" result="BackgroundImageFix"/>
<feColorMatrix in="SourceAlpha" type="matrix" values="0 0 0 0 0 0 0 0 0 0 0 0 0 0 0 0 0 0 127 0" result="hardAlpha"/>
<feOffset dy="4"/>
<feGaussianBlur stdDeviation="2"/>
<feComposite in2="hardAlpha" operator="out"/>
<feColorMatrix type="matrix" values="0 0 0 0 0 0 0 0 0 0 0 0 0 0 0 0 0 0 0.25 0"/>
<feBlend mode="normal" in2="BackgroundImageFix" result="effect1_dropShadow_1_11"/>
<feBlend mode="normal" in="SourceGraphic" in2="effect1_dropShadow_1_11" result="shape"/>
</filter>
</defs>
</svg>
